<svg width="16" height="16" viewBox="0 0 16 16" fill="none" xmlns="http://www.w3.org/2000/svg">
<path d="M10.1971 9.52674L8.67045 11.0601L8.67045 3.3334C8.67045 3.15659 8.60021 2.98702 8.47519 2.862C8.35016 2.73697 8.18059 2.66674 8.00378 2.66674C7.82697 2.66674 7.6574 2.73697 7.53238 2.862C7.40735 2.98702 7.33712 3.15659 7.33712 3.3334L7.33712 11.0601L5.81045 9.52674C5.74847 9.46425 5.67474 9.41465 5.5935 9.38081C5.51226 9.34696 5.42512 9.32954 5.33712 9.32954C5.24911 9.32954 5.16197 9.34696 5.08073 9.38081C4.99949 9.41465 4.92576 9.46425 4.86378 9.52673C4.8013 9.58871 4.7517 9.66244 4.71785 9.74368C4.68401 9.82492 4.66658 9.91206 4.66658 10.0001C4.66658 10.0881 4.68401 10.1752 4.71785 10.2565C4.7517 10.3377 4.8013 10.4114 4.86378 10.4734L7.53045 13.1401C7.59385 13.2008 7.66861 13.2483 7.75045 13.2801C7.91276 13.3467 8.09481 13.3467 8.25712 13.2801C8.33895 13.2483 8.41371 13.2008 8.47712 13.1401L11.1438 10.4734C11.2059 10.4112 11.2552 10.3374 11.2889 10.2562C11.3225 10.175 11.3398 10.088 11.3398 10.0001C11.3398 9.91216 11.3225 9.82512 11.2889 9.7439C11.2552 9.66269 11.2059 9.58889 11.1438 9.52674C11.0816 9.46458 11.0078 9.41527 10.9266 9.38163C10.8454 9.34799 10.7584 9.33067 10.6704 9.33067C10.5825 9.33067 10.4955 9.34799 10.4143 9.38163C10.3331 9.41527 10.2593 9.46458 10.1971 9.52674Z" fill="#475569"/>
</svg>
