<svg width="16" height="16" viewBox="0 0 16 16" fill="none" xmlns="http://www.w3.org/2000/svg">
<path d="M5.80923 6.46985L7.3359 4.93651V12.6632C7.3359 12.84 7.40614 13.0096 7.53116 13.1346C7.65618 13.2596 7.82575 13.3298 8.00257 13.3298C8.17938 13.3298 8.34895 13.2596 8.47397 13.1346C8.59899 13.0096 8.66923 12.84 8.66923 12.6632V4.93651L10.1959 6.46985C10.2579 6.53233 10.3316 6.58193 10.4128 6.61577C10.4941 6.64962 10.5812 6.66705 10.6692 6.66705C10.7572 6.66705 10.8444 6.64962 10.9256 6.61577C11.0069 6.58193 11.0806 6.53233 11.1426 6.46985C11.205 6.40787 11.2546 6.33414 11.2885 6.2529C11.3223 6.17166 11.3398 6.08452 11.3398 5.99651C11.3398 5.90851 11.3223 5.82137 11.2885 5.74013C11.2546 5.65889 11.205 5.58516 11.1426 5.52318L8.4759 2.85651C8.4125 2.79582 8.33773 2.74824 8.2559 2.71651C8.09359 2.64983 7.91154 2.64983 7.74923 2.71651C7.6674 2.74824 7.59263 2.79582 7.52923 2.85651L4.86257 5.52318C4.80041 5.58534 4.7511 5.65913 4.71746 5.74035C4.68382 5.82156 4.6665 5.90861 4.6665 5.99651C4.6665 6.08442 4.68382 6.17146 4.71746 6.25268C4.7511 6.33389 4.80041 6.40769 4.86257 6.46985C4.92472 6.53201 4.99852 6.58131 5.07973 6.61495C5.16095 6.64859 5.24799 6.66591 5.3359 6.66591C5.4238 6.66591 5.51085 6.64859 5.59206 6.61495C5.67328 6.58131 5.74707 6.53201 5.80923 6.46985Z" fill="#475569"/>
</svg>
