<svg width="16" height="16" viewBox="0 0 16 16" fill="none" xmlns="http://www.w3.org/2000/svg">
<path d="M8.00016 12.6665C8.13202 12.6665 8.26091 12.6274 8.37054 12.5542C8.48018 12.4809 8.56562 12.3768 8.61608 12.255C8.66654 12.1331 8.67974 11.9991 8.65402 11.8698C8.6283 11.7405 8.5648 11.6217 8.47157 11.5284C8.37833 11.4352 8.25954 11.3717 8.13022 11.346C8.0009 11.3203 7.86686 11.3335 7.74504 11.3839C7.62322 11.4344 7.5191 11.5198 7.44585 11.6295C7.3726 11.7391 7.3335 11.868 7.3335 11.9998C7.3335 12.1766 7.40373 12.3462 7.52876 12.4712C7.65378 12.5963 7.82335 12.6665 8.00016 12.6665ZM11.3335 12.6665C11.4654 12.6665 11.5942 12.6274 11.7039 12.5542C11.8135 12.4809 11.899 12.3768 11.9494 12.255C11.9999 12.1331 12.0131 11.9991 11.9874 11.8698C11.9616 11.7405 11.8981 11.6217 11.8049 11.5284C11.7117 11.4352 11.5929 11.3717 11.4636 11.346C11.3342 11.3203 11.2002 11.3335 11.0784 11.3839C10.9566 11.4344 10.8524 11.5198 10.7792 11.6295C10.7059 11.7391 10.6668 11.868 10.6668 11.9998C10.6668 12.1766 10.7371 12.3462 10.8621 12.4712C10.9871 12.5963 11.1567 12.6665 11.3335 12.6665ZM11.3335 9.99984C11.4654 9.99984 11.5942 9.96074 11.7039 9.88748C11.8135 9.81423 11.899 9.71011 11.9494 9.58829C11.9999 9.46648 12.0131 9.33243 11.9874 9.20311C11.9616 9.07379 11.8981 8.955 11.8049 8.86177C11.7117 8.76853 11.5929 8.70504 11.4636 8.67931C11.3342 8.65359 11.2002 8.66679 11.0784 8.71725C10.9566 8.76771 10.8524 8.85316 10.7792 8.96279C10.7059 9.07242 10.6668 9.20132 10.6668 9.33317C10.6668 9.50998 10.7371 9.67955 10.8621 9.80457C10.9871 9.9296 11.1567 9.99984 11.3335 9.99984ZM8.00016 9.99984C8.13202 9.99984 8.26091 9.96074 8.37054 9.88748C8.48018 9.81423 8.56562 9.71011 8.61608 9.58829C8.66654 9.46648 8.67974 9.33243 8.65402 9.20311C8.6283 9.07379 8.5648 8.955 8.47157 8.86177C8.37833 8.76853 8.25954 8.70504 8.13022 8.67931C8.0009 8.65359 7.86686 8.66679 7.74504 8.71725C7.62322 8.76771 7.5191 8.85316 7.44585 8.96279C7.3726 9.07242 7.3335 9.20132 7.3335 9.33317C7.3335 9.50998 7.40373 9.67955 7.52876 9.80457C7.65378 9.9296 7.82335 9.99984 8.00016 9.99984ZM12.6668 1.99984H12.0002V1.33317C12.0002 1.15636 11.9299 0.98679 11.8049 0.861766C11.6799 0.736742 11.5103 0.666504 11.3335 0.666504C11.1567 0.666504 10.9871 0.736742 10.8621 0.861766C10.7371 0.98679 10.6668 1.15636 10.6668 1.33317V1.99984H5.3335V1.33317C5.3335 1.15636 5.26326 0.98679 5.13823 0.861766C5.01321 0.736742 4.84364 0.666504 4.66683 0.666504C4.49002 0.666504 4.32045 0.736742 4.19543 0.861766C4.0704 0.98679 4.00016 1.15636 4.00016 1.33317V1.99984H3.3335C2.80306 1.99984 2.29436 2.21055 1.91928 2.58562C1.54421 2.9607 1.3335 3.4694 1.3335 3.99984V13.3332C1.3335 13.8636 1.54421 14.3723 1.91928 14.7474C2.29436 15.1225 2.80306 15.3332 3.3335 15.3332H12.6668C13.1973 15.3332 13.706 15.1225 14.081 14.7474C14.4561 14.3723 14.6668 13.8636 14.6668 13.3332V3.99984C14.6668 3.4694 14.4561 2.9607 14.081 2.58562C13.706 2.21055 13.1973 1.99984 12.6668 1.99984ZM13.3335 13.3332C13.3335 13.51 13.2633 13.6796 13.1382 13.8046C13.0132 13.9296 12.8436 13.9998 12.6668 13.9998H3.3335C3.15669 13.9998 2.98712 13.9296 2.86209 13.8046C2.73707 13.6796 2.66683 13.51 2.66683 13.3332V7.33317H13.3335V13.3332ZM13.3335 5.99984H2.66683V3.99984C2.66683 3.82303 2.73707 3.65346 2.86209 3.52843C2.98712 3.40341 3.15669 3.33317 3.3335 3.33317H4.00016V3.99984C4.00016 4.17665 4.0704 4.34622 4.19543 4.47124C4.32045 4.59627 4.49002 4.6665 4.66683 4.6665C4.84364 4.6665 5.01321 4.59627 5.13823 4.47124C5.26326 4.34622 5.3335 4.17665 5.3335 3.99984V3.33317H10.6668V3.99984C10.6668 4.17665 10.7371 4.34622 10.8621 4.47124C10.9871 4.59627 11.1567 4.6665 11.3335 4.6665C11.5103 4.6665 11.6799 4.59627 11.8049 4.47124C11.9299 4.34622 12.0002 4.17665 12.0002 3.99984V3.33317H12.6668C12.8436 3.33317 13.0132 3.40341 13.1382 3.52843C13.2633 3.65346 13.3335 3.82303 13.3335 3.99984V5.99984ZM4.66683 9.99984C4.79868 9.99984 4.92758 9.96074 5.03721 9.88748C5.14684 9.81423 5.23229 9.71011 5.28275 9.58829C5.33321 9.46648 5.34641 9.33243 5.32069 9.20311C5.29496 9.07379 5.23147 8.955 5.13823 8.86177C5.045 8.76853 4.92621 8.70504 4.79689 8.67931C4.66757 8.65359 4.53352 8.66679 4.41171 8.71725C4.28989 8.76771 4.18577 8.85316 4.11252 8.96279C4.03926 9.07242 4.00016 9.20132 4.00016 9.33317C4.00016 9.50998 4.0704 9.67955 4.19543 9.80457C4.32045 9.9296 4.49002 9.99984 4.66683 9.99984ZM4.66683 12.6665C4.79868 12.6665 4.92758 12.6274 5.03721 12.5542C5.14684 12.4809 5.23229 12.3768 5.28275 12.255C5.33321 12.1331 5.34641 11.9991 5.32069 11.8698C5.29496 11.7405 5.23147 11.6217 5.13823 11.5284C5.045 11.4352 4.92621 11.3717 4.79689 11.346C4.66757 11.3203 4.53352 11.3335 4.41171 11.3839C4.28989 11.4344 4.18577 11.5198 4.11252 11.6295C4.03926 11.7391 4.00016 11.868 4.00016 11.9998C4.00016 12.1766 4.0704 12.3462 4.19543 12.4712C4.32045 12.5963 4.49002 12.6665 4.66683 12.6665Z" fill="#475569"/>
</svg>
