<svg width="16" height="16" viewBox="0 0 16 16" fill="none" xmlns="http://www.w3.org/2000/svg">
<path d="M14.0002 9.3335C13.8234 9.3335 13.6538 9.40373 13.5288 9.52876C13.4037 9.65378 13.3335 9.82335 13.3335 10.0002V12.6668C13.3335 12.8436 13.2633 13.0132 13.1382 13.1382C13.0132 13.2633 12.8436 13.3335 12.6668 13.3335H3.3335C3.15669 13.3335 2.98712 13.2633 2.86209 13.1382C2.73707 13.0132 2.66683 12.8436 2.66683 12.6668V10.0002C2.66683 9.82335 2.59659 9.65378 2.47157 9.52876C2.34654 9.40373 2.17697 9.3335 2.00016 9.3335C1.82335 9.3335 1.65378 9.40373 1.52876 9.52876C1.40373 9.65378 1.3335 9.82335 1.3335 10.0002V12.6668C1.3335 13.1973 1.54421 13.706 1.91928 14.081C2.29436 14.4561 2.80306 14.6668 3.3335 14.6668H12.6668C13.1973 14.6668 13.706 14.4561 14.081 14.081C14.4561 13.706 14.6668 13.1973 14.6668 12.6668V10.0002C14.6668 9.82335 14.5966 9.65378 14.4716 9.52876C14.3465 9.40373 14.177 9.3335 14.0002 9.3335ZM7.52683 10.4735C7.59023 10.5342 7.665 10.5818 7.74683 10.6135C7.82663 10.6488 7.91292 10.667 8.00016 10.667C8.08741 10.667 8.1737 10.6488 8.2535 10.6135C8.33533 10.5818 8.41009 10.5342 8.4735 10.4735L11.1402 7.80683C11.2657 7.68129 11.3362 7.51103 11.3362 7.3335C11.3362 7.15596 11.2657 6.9857 11.1402 6.86016C11.0146 6.73463 10.8444 6.6641 10.6668 6.6641C10.4893 6.6641 10.319 6.73463 10.1935 6.86016L8.66683 8.3935V2.00016C8.66683 1.82335 8.59659 1.65378 8.47157 1.52876C8.34654 1.40373 8.17697 1.3335 8.00016 1.3335C7.82335 1.3335 7.65378 1.40373 7.52876 1.52876C7.40373 1.65378 7.3335 1.82335 7.3335 2.00016V8.3935L5.80683 6.86016C5.74467 6.798 5.67088 6.7487 5.58966 6.71506C5.50845 6.68142 5.4214 6.6641 5.3335 6.6641C5.24559 6.6641 5.15854 6.68142 5.07733 6.71506C4.99612 6.7487 4.92232 6.798 4.86016 6.86016C4.798 6.92232 4.7487 6.99612 4.71506 7.07733C4.68142 7.15854 4.6641 7.24559 4.6641 7.3335C4.6641 7.4214 4.68142 7.50845 4.71506 7.58966C4.7487 7.67088 4.798 7.74467 4.86016 7.80683L7.52683 10.4735Z" fill="#475569"/>
</svg>
