<svg width="16" height="16" viewBox="0 0 16 16" fill="none" xmlns="http://www.w3.org/2000/svg">
<path d="M13.3332 5.96016C13.3262 5.89892 13.3128 5.83858 13.2932 5.78016V5.72016C13.2611 5.65162 13.2184 5.58861 13.1665 5.5335L9.1665 1.5335C9.11139 1.48164 9.04838 1.43888 8.97984 1.40683H8.91984L8.7065 1.3335H4.6665C4.13607 1.3335 3.62736 1.54421 3.25229 1.91928C2.87722 2.29436 2.6665 2.80306 2.6665 3.3335V12.6668C2.6665 13.1973 2.87722 13.706 3.25229 14.081C3.62736 14.4561 4.13607 14.6668 4.6665 14.6668H11.3332C11.8636 14.6668 12.3723 14.4561 12.7474 14.081C13.1225 13.706 13.3332 13.1973 13.3332 12.6668V6.00016C13.3332 6.00016 13.3332 6.00016 13.3332 5.96016ZM9.33317 3.60683L11.0598 5.3335H9.33317V3.60683ZM11.9998 12.6668C11.9998 12.8436 11.9296 13.0132 11.8046 13.1382C11.6796 13.2633 11.51 13.3335 11.3332 13.3335H4.6665C4.48969 13.3335 4.32012 13.2633 4.1951 13.1382C4.07008 13.0132 3.99984 12.8436 3.99984 12.6668V3.3335C3.99984 3.15669 4.07008 2.98712 4.1951 2.86209C4.32012 2.73707 4.48969 2.66683 4.6665 2.66683H7.99984V6.00016C7.99984 6.17697 8.07008 6.34654 8.1951 6.47157C8.32012 6.59659 8.48969 6.66683 8.6665 6.66683H11.9998V12.6668Z" fill="#475569"/>
</svg>
