<svg width="16" height="16" viewBox="0 0 16 16" fill="none" xmlns="http://www.w3.org/2000/svg">
<path d="M13.9467 10.4135C13.9129 10.3327 13.8656 10.2583 13.8067 10.1935L11.8067 8.1935C11.6811 8.06796 11.5109 7.99744 11.3333 7.99744C11.1558 7.99744 10.9855 8.06796 10.86 8.1935C10.7345 8.31903 10.6639 8.4893 10.6639 8.66683C10.6639 8.84436 10.7345 9.01463 10.86 9.14016L11.7267 10.0002H8C7.82319 10.0002 7.65362 10.0704 7.5286 10.1954C7.40357 10.3204 7.33333 10.49 7.33333 10.6668C7.33333 10.8436 7.40357 11.0132 7.5286 11.1382C7.65362 11.2633 7.82319 11.3335 8 11.3335H11.7267L10.86 12.1935C10.7975 12.2555 10.7479 12.3292 10.7141 12.4104C10.6802 12.4917 10.6628 12.5788 10.6628 12.6668C10.6628 12.7548 10.6802 12.842 10.7141 12.9232C10.7479 13.0045 10.7975 13.0782 10.86 13.1402C10.922 13.2026 10.9957 13.2522 11.0769 13.2861C11.1582 13.3199 11.2453 13.3374 11.3333 13.3374C11.4213 13.3374 11.5085 13.3199 11.5897 13.2861C11.671 13.2522 11.7447 13.2026 11.8067 13.1402L13.8067 11.1402C13.8684 11.0776 13.9161 11.0026 13.9467 10.9202C14.0133 10.7579 14.0133 10.5758 13.9467 10.4135ZM9.33333 13.3335H4C3.82319 13.3335 3.65362 13.2633 3.5286 13.1382C3.40357 13.0132 3.33333 12.8436 3.33333 12.6668V3.3335C3.33333 3.15669 3.40357 2.98712 3.5286 2.86209C3.65362 2.73707 3.82319 2.66683 4 2.66683H7.33333V4.66683C7.33333 5.19726 7.54405 5.70597 7.91912 6.08104C8.29419 6.45612 8.8029 6.66683 9.33333 6.66683H12C12.1316 6.66617 12.2601 6.62657 12.3692 6.55302C12.4784 6.47946 12.5633 6.37524 12.6133 6.2535C12.6644 6.13209 12.6783 5.99828 12.6534 5.86895C12.6285 5.73963 12.5658 5.62058 12.4733 5.52683L8.47333 1.52683C8.41822 1.47497 8.35521 1.43222 8.28667 1.40016H8.22667L8.04 1.3335H4C3.46957 1.3335 2.96086 1.54421 2.58579 1.91928C2.21071 2.29436 2 2.80306 2 3.3335V12.6668C2 13.1973 2.21071 13.706 2.58579 14.081C2.96086 14.4561 3.46957 14.6668 4 14.6668H9.33333C9.51014 14.6668 9.67971 14.5966 9.80474 14.4716C9.92976 14.3465 10 14.177 10 14.0002C10 13.8234 9.92976 13.6538 9.80474 13.5288C9.67971 13.4037 9.51014 13.3335 9.33333 13.3335ZM8.66667 3.60683L10.3933 5.3335H9.33333C9.15652 5.3335 8.98695 5.26326 8.86193 5.13823C8.73691 5.01321 8.66667 4.84364 8.66667 4.66683V3.60683Z" fill="#475569"/>
</svg>
