<svg width="16" height="16" viewBox="0 0 16 16" fill="none" xmlns="http://www.w3.org/2000/svg">
<path d="M8.3935 8.6669L6.86016 10.1936C6.79768 10.2555 6.74808 10.3293 6.71424 10.4105C6.68039 10.4918 6.66296 10.5789 6.66296 10.6669C6.66296 10.7549 6.68039 10.842 6.71424 10.9233C6.74808 11.0045 6.79768 11.0783 6.86016 11.1402C6.92214 11.2027 6.99587 11.2523 7.07711 11.2862C7.15835 11.32 7.24549 11.3374 7.3335 11.3374C7.4215 11.3374 7.50864 11.32 7.58988 11.2862C7.67112 11.2523 7.74485 11.2027 7.80683 11.1402L10.4735 8.47356C10.5342 8.41016 10.5818 8.3354 10.6135 8.25356C10.6802 8.09126 10.6802 7.9092 10.6135 7.7469C10.5818 7.66506 10.5342 7.5903 10.4735 7.5269L7.80683 4.86023C7.74467 4.79807 7.67088 4.74876 7.58966 4.71512C7.50845 4.68148 7.4214 4.66417 7.3335 4.66417C7.24559 4.66417 7.15854 4.68148 7.07733 4.71512C6.99612 4.74876 6.92232 4.79807 6.86016 4.86023C6.798 4.92239 6.7487 4.99618 6.71506 5.0774C6.68142 5.15861 6.6641 5.24566 6.6641 5.33356C6.6641 5.42147 6.68142 5.50851 6.71506 5.58973C6.7487 5.67094 6.798 5.74474 6.86016 5.8069L8.3935 7.33356H2.00016C1.82335 7.33356 1.65378 7.4038 1.52876 7.52883C1.40373 7.65385 1.3335 7.82342 1.3335 8.00023C1.3335 8.17704 1.40373 8.34661 1.52876 8.47163C1.65378 8.59666 1.82335 8.6669 2.00016 8.6669H8.3935ZM8.00016 1.33356C6.75422 1.328 5.53166 1.6717 4.47114 2.32569C3.41062 2.97968 2.5546 3.91777 2.00016 5.03356C1.9206 5.19269 1.90751 5.37691 1.96377 5.54569C2.02003 5.71448 2.14103 5.854 2.30016 5.93356C2.45929 6.01313 2.64351 6.02622 2.81229 5.96996C2.98108 5.9137 3.1206 5.79269 3.20016 5.63356C3.62162 4.78244 4.26272 4.05931 5.0572 3.53889C5.85167 3.01847 6.77071 2.71964 7.71933 2.67329C8.66796 2.62694 9.61175 2.83475 10.4532 3.27524C11.2946 3.71573 12.0031 4.37292 12.5056 5.17889C13.008 5.98487 13.2861 6.91039 13.3111 7.85982C13.3361 8.80924 13.1071 9.74812 12.6478 10.5794C12.1885 11.4107 11.5156 12.1043 10.6985 12.5885C9.88145 13.0727 8.94991 13.3299 8.00016 13.3336C7.00608 13.3379 6.03093 13.0618 5.18662 12.5371C4.34232 12.0123 3.66307 11.2602 3.22683 10.3669C3.14726 10.2078 3.00774 10.0868 2.83896 10.0305C2.67018 9.97424 2.48596 9.98733 2.32683 10.0669C2.1677 10.1465 2.04669 10.286 1.99043 10.4548C1.93417 10.6235 1.94726 10.8078 2.02683 10.9669C2.55538 12.0306 3.35851 12.9337 4.35314 13.5829C5.34778 14.2321 6.49779 14.6038 7.68424 14.6596C8.87069 14.7153 10.0505 14.453 11.1016 13.8999C12.1527 13.3468 13.0369 12.5229 13.6629 11.5134C14.2888 10.504 14.6337 9.34565 14.6618 8.15823C14.69 6.97081 14.4004 5.79742 13.823 4.75945C13.2456 3.72148 12.4014 2.85661 11.3777 2.2543C10.354 1.65199 9.18792 1.33412 8.00016 1.33356Z" fill="#475569"/>
</svg>
