<svg width="4" height="12" viewBox="0 0 4 12" fill="none" xmlns="http://www.w3.org/2000/svg">
<path d="M1.99999 2.66667C2.2637 2.66667 2.52148 2.58847 2.74075 2.44196C2.96002 2.29545 3.13091 2.08721 3.23183 1.84358C3.33275 1.59994 3.35915 1.33185 3.3077 1.07321C3.25626 0.814572 3.12927 0.576995 2.9428 0.390525C2.75633 0.204055 2.51875 0.0770672 2.26011 0.0256202C2.00147 -0.0258267 1.73338 0.000577708 1.48975 0.101495C1.24611 0.202411 1.03787 0.373308 0.891364 0.592574C0.744856 0.811839 0.666657 1.06963 0.666657 1.33333C0.666657 1.68696 0.807133 2.02609 1.05718 2.27614C1.30723 2.52619 1.64637 2.66667 1.99999 2.66667ZM1.99999 9.33333C1.73628 9.33333 1.4785 9.41153 1.25923 9.55804C1.03996 9.70455 0.869068 9.91279 0.768151 10.1564C0.667234 10.4001 0.64083 10.6681 0.692277 10.9268C0.743724 11.1854 0.870712 11.423 1.05718 11.6095C1.24365 11.7959 1.48123 11.9229 1.73987 11.9744C1.99851 12.0258 2.2666 11.9994 2.51023 11.8985C2.75387 11.7976 2.96211 11.6267 3.10862 11.4074C3.25512 11.1882 3.33332 10.9304 3.33332 10.6667C3.33332 10.313 3.19285 9.97391 2.9428 9.72386C2.69275 9.47381 2.35361 9.33333 1.99999 9.33333ZM1.99999 4.66667C1.73628 4.66667 1.4785 4.74487 1.25923 4.89137C1.03996 5.03788 0.869068 5.24612 0.768151 5.48976C0.667234 5.73339 0.64083 6.00148 0.692277 6.26012C0.743724 6.51876 0.870712 6.75634 1.05718 6.94281C1.24365 7.12928 1.48123 7.25627 1.73987 7.30771C1.99851 7.35916 2.2666 7.33276 2.51023 7.23184C2.75387 7.13092 2.96211 6.96003 3.10862 6.74076C3.25512 6.52149 3.33332 6.26371 3.33332 6C3.33332 5.64638 3.19285 5.30724 2.9428 5.05719C2.69275 4.80714 2.35361 4.66667 1.99999 4.66667Z" fill="#475569"/>
</svg>
