<svg width="16" height="16" viewBox="0 0 16 16" fill="none" xmlns="http://www.w3.org/2000/svg">
<path d="M8.00016 4.00016C7.82335 4.00016 7.65378 4.0704 7.52876 4.19543C7.40373 4.32045 7.3335 4.49002 7.3335 4.66683V11.3335C7.3335 11.5103 7.40373 11.6799 7.52876 11.8049C7.65378 11.9299 7.82335 12.0002 8.00016 12.0002C8.17697 12.0002 8.34654 11.9299 8.47157 11.8049C8.59659 11.6799 8.66683 11.5103 8.66683 11.3335V4.66683C8.66683 4.49002 8.59659 4.32045 8.47157 4.19543C8.34654 4.0704 8.17697 4.00016 8.00016 4.00016ZM4.66683 8.00016C4.49002 8.00016 4.32045 8.0704 4.19543 8.19543C4.0704 8.32045 4.00016 8.49002 4.00016 8.66683V11.3335C4.00016 11.5103 4.0704 11.6799 4.19543 11.8049C4.32045 11.9299 4.49002 12.0002 4.66683 12.0002C4.84364 12.0002 5.01321 11.9299 5.13823 11.8049C5.26326 11.6799 5.3335 11.5103 5.3335 11.3335V8.66683C5.3335 8.49002 5.26326 8.32045 5.13823 8.19543C5.01321 8.0704 4.84364 8.00016 4.66683 8.00016ZM11.3335 6.66683C11.1567 6.66683 10.9871 6.73707 10.8621 6.86209C10.7371 6.98712 10.6668 7.15669 10.6668 7.3335V11.3335C10.6668 11.5103 10.7371 11.6799 10.8621 11.8049C10.9871 11.9299 11.1567 12.0002 11.3335 12.0002C11.5103 12.0002 11.6799 11.9299 11.8049 11.8049C11.9299 11.6799 12.0002 11.5103 12.0002 11.3335V7.3335C12.0002 7.15669 11.9299 6.98712 11.8049 6.86209C11.6799 6.73707 11.5103 6.66683 11.3335 6.66683ZM12.6668 1.3335H3.3335C2.80306 1.3335 2.29436 1.54421 1.91928 1.91928C1.54421 2.29436 1.3335 2.80306 1.3335 3.3335V12.6668C1.3335 13.1973 1.54421 13.706 1.91928 14.081C2.29436 14.4561 2.80306 14.6668 3.3335 14.6668H12.6668C13.1973 14.6668 13.706 14.4561 14.081 14.081C14.4561 13.706 14.6668 13.1973 14.6668 12.6668V3.3335C14.6668 2.80306 14.4561 2.29436 14.081 1.91928C13.706 1.54421 13.1973 1.3335 12.6668 1.3335ZM13.3335 12.6668C13.3335 12.8436 13.2633 13.0132 13.1382 13.1382C13.0132 13.2633 12.8436 13.3335 12.6668 13.3335H3.3335C3.15669 13.3335 2.98712 13.2633 2.86209 13.1382C2.73707 13.0132 2.66683 12.8436 2.66683 12.6668V3.3335C2.66683 3.15669 2.73707 2.98712 2.86209 2.86209C2.98712 2.73707 3.15669 2.66683 3.3335 2.66683H12.6668C12.8436 2.66683 13.0132 2.73707 13.1382 2.86209C13.2633 2.98712 13.3335 3.15669 13.3335 3.3335V12.6668Z" fill="#475569"/>
</svg>
