<svg width="16" height="16" viewBox="0 0 16 16" fill="none" xmlns="http://www.w3.org/2000/svg">
<path d="M8.00016 13.3335H3.3335C3.15669 13.3335 2.98712 13.2633 2.86209 13.1382C2.73707 13.0132 2.66683 12.8436 2.66683 12.6668V3.3335C2.66683 3.15669 2.73707 2.98712 2.86209 2.86209C2.98712 2.73707 3.15669 2.66683 3.3335 2.66683H6.66683V4.66683C6.66683 5.19726 6.87754 5.70597 7.25262 6.08104C7.62769 6.45612 8.1364 6.66683 8.66683 6.66683H10.6668V7.3335C10.6668 7.51031 10.7371 7.67988 10.8621 7.8049C10.9871 7.92992 11.1567 8.00016 11.3335 8.00016C11.5103 8.00016 11.6799 7.92992 11.8049 7.8049C11.9299 7.67988 12.0002 7.51031 12.0002 7.3335V6.00016C12.0002 6.00016 12.0002 6.00016 12.0002 5.96016C11.9932 5.89892 11.9798 5.83858 11.9602 5.78016V5.72016C11.9281 5.65162 11.8854 5.58861 11.8335 5.5335L7.8335 1.5335C7.77839 1.48164 7.71538 1.43888 7.64683 1.40683C7.62693 1.404 7.60673 1.404 7.58683 1.40683C7.51911 1.36799 7.44431 1.34306 7.36683 1.3335H3.3335C2.80306 1.3335 2.29436 1.54421 1.91928 1.91928C1.54421 2.29436 1.3335 2.80306 1.3335 3.3335V12.6668C1.3335 13.1973 1.54421 13.706 1.91928 14.081C2.29436 14.4561 2.80306 14.6668 3.3335 14.6668H8.00016C8.17697 14.6668 8.34654 14.5966 8.47157 14.4716C8.59659 14.3465 8.66683 14.177 8.66683 14.0002C8.66683 13.8234 8.59659 13.6538 8.47157 13.5288C8.34654 13.4037 8.17697 13.3335 8.00016 13.3335ZM8.00016 3.60683L9.72683 5.3335H8.66683C8.49002 5.3335 8.32045 5.26326 8.19543 5.13823C8.0704 5.01321 8.00016 4.84364 8.00016 4.66683V3.60683ZM4.66683 5.3335C4.49002 5.3335 4.32045 5.40373 4.19543 5.52876C4.0704 5.65378 4.00016 5.82335 4.00016 6.00016C4.00016 6.17697 4.0704 6.34654 4.19543 6.47157C4.32045 6.59659 4.49002 6.66683 4.66683 6.66683H5.3335C5.51031 6.66683 5.67988 6.59659 5.8049 6.47157C5.92992 6.34654 6.00016 6.17697 6.00016 6.00016C6.00016 5.82335 5.92992 5.65378 5.8049 5.52876C5.67988 5.40373 5.51031 5.3335 5.3335 5.3335H4.66683ZM14.4735 13.5268L13.6935 12.7535C13.9428 12.3183 14.0426 11.8134 13.9776 11.3162C13.9125 10.8189 13.6863 10.3566 13.3335 10.0002C13.0088 9.66394 12.5905 9.43329 12.1328 9.33826C11.6752 9.24322 11.1996 9.28821 10.7679 9.46735C10.3363 9.6465 9.96853 9.9515 9.71268 10.3426C9.45682 10.7338 9.32469 11.1929 9.3335 11.6602C9.3312 12.0623 9.43408 12.458 9.63191 12.8081C9.82975 13.1582 10.1157 13.4505 10.4613 13.656C10.807 13.8615 11.2003 13.9731 11.6024 13.9797C12.0045 13.9863 12.4013 13.8876 12.7535 13.6935L13.5268 14.4735C13.5888 14.536 13.6625 14.5856 13.7438 14.6194C13.825 14.6533 13.9122 14.6707 14.0002 14.6707C14.0882 14.6707 14.1753 14.6533 14.2565 14.6194C14.3378 14.5856 14.4115 14.536 14.4735 14.4735C14.536 14.4115 14.5856 14.3378 14.6194 14.2565C14.6533 14.1753 14.6707 14.0882 14.6707 14.0002C14.6707 13.9122 14.6533 13.825 14.6194 13.7438C14.5856 13.6625 14.536 13.5888 14.4735 13.5268ZM12.3602 12.3602C12.1698 12.5392 11.9182 12.6389 11.6568 12.6389C11.3954 12.6389 11.1439 12.5392 10.9535 12.3602C10.77 12.1734 10.667 11.922 10.6668 11.6602C10.6655 11.5287 10.6907 11.3983 10.7411 11.2768C10.7916 11.1553 10.8661 11.0454 10.9602 10.9535C11.1379 10.7767 11.3763 10.6742 11.6268 10.6668C11.7616 10.6585 11.8967 10.6782 12.0235 10.7246C12.1503 10.7709 12.2662 10.843 12.3638 10.9363C12.4615 11.0296 12.5388 11.142 12.5909 11.2666C12.6431 11.3911 12.6689 11.5251 12.6668 11.6602C12.6613 11.9249 12.551 12.1766 12.3602 12.3602ZM8.66683 8.00016H4.66683C4.49002 8.00016 4.32045 8.0704 4.19543 8.19543C4.0704 8.32045 4.00016 8.49002 4.00016 8.66683C4.00016 8.84364 4.0704 9.01321 4.19543 9.13823C4.32045 9.26326 4.49002 9.3335 4.66683 9.3335H8.66683C8.84364 9.3335 9.01321 9.26326 9.13823 9.13823C9.26326 9.01321 9.3335 8.84364 9.3335 8.66683C9.3335 8.49002 9.26326 8.32045 9.13823 8.19543C9.01321 8.0704 8.84364 8.00016 8.66683 8.00016ZM7.3335 12.0002C7.51031 12.0002 7.67988 11.9299 7.8049 11.8049C7.92992 11.6799 8.00016 11.5103 8.00016 11.3335C8.00016 11.1567 7.92992 10.9871 7.8049 10.8621C7.67988 10.7371 7.51031 10.6668 7.3335 10.6668H4.66683C4.49002 10.6668 4.32045 10.7371 4.19543 10.8621C4.0704 10.9871 4.00016 11.1567 4.00016 11.3335C4.00016 11.5103 4.0704 11.6799 4.19543 11.8049C4.32045 11.9299 4.49002 12.0002 4.66683 12.0002H7.3335Z" fill="#475569"/>
</svg>
