<svg width="16" height="16" viewBox="0 0 16 16" fill="none" xmlns="http://www.w3.org/2000/svg">
<path d="M14.4733 6.19334L11.8067 3.52667C11.7445 3.46451 11.6707 3.41521 11.5895 3.38157C11.5083 3.34793 11.4212 3.33061 11.3333 3.33061C11.1558 3.33061 10.9855 3.40114 10.86 3.52667C10.7345 3.65221 10.6639 3.82247 10.6639 4.00001C10.6639 4.17754 10.7345 4.3478 10.86 4.47334L12.3933 6.00001H4.66666C4.48985 6.00001 4.32028 6.07024 4.19525 6.19527C4.07023 6.32029 3.99999 6.48986 3.99999 6.66667C3.99999 6.84348 4.07023 7.01305 4.19525 7.13808C4.32028 7.2631 4.48985 7.33334 4.66666 7.33334H14C14.1316 7.33268 14.2601 7.29308 14.3692 7.21953C14.4784 7.14597 14.5633 7.04175 14.6133 6.92001C14.6644 6.7986 14.6783 6.66479 14.6534 6.53546C14.6285 6.40614 14.5658 6.28709 14.4733 6.19334V6.19334ZM11.3333 8.66667H1.99999C1.86837 8.66733 1.7399 8.70693 1.63075 8.78049C1.5216 8.85404 1.43667 8.95826 1.38666 9.08001C1.3356 9.20141 1.32166 9.33522 1.34657 9.46455C1.37149 9.59388 1.43415 9.71292 1.52666 9.80667L4.19333 12.4733C4.2553 12.5358 4.32903 12.5854 4.41027 12.6193C4.49151 12.6531 4.57865 12.6705 4.66666 12.6705C4.75467 12.6705 4.8418 12.6531 4.92304 12.6193C5.00428 12.5854 5.07802 12.5358 5.13999 12.4733C5.20248 12.4114 5.25207 12.3376 5.28592 12.2564C5.31977 12.1752 5.33719 12.088 5.33719 12C5.33719 11.912 5.31977 11.8249 5.28592 11.7436C5.25207 11.6624 5.20248 11.5886 5.13999 11.5267L3.60666 10H11.3333C11.5101 10 11.6797 9.92977 11.8047 9.80474C11.9298 9.67972 12 9.51015 12 9.33334C12 9.15653 11.9298 8.98696 11.8047 8.86194C11.6797 8.73691 11.5101 8.66667 11.3333 8.66667Z" fill="#475569"/>
</svg>
