<svg width="14" height="8" viewBox="0 0 14 8" fill="none" xmlns="http://www.w3.org/2000/svg">
<path d="M6.2782 0.502682L0.628196 6.16268C0.534467 6.25564 0.460073 6.36625 0.409305 6.4881C0.358536 6.60996 0.332397 6.74067 0.332397 6.87268C0.332397 7.00469 0.358536 7.1354 0.409305 7.25726C0.460073 7.37912 0.534467 7.48972 0.628196 7.58268C0.815558 7.76893 1.06901 7.87347 1.3332 7.87347C1.59738 7.87347 1.85083 7.76893 2.0382 7.58268L7.0382 2.63268L11.9882 7.58268C12.1756 7.76893 12.429 7.87347 12.6932 7.87347C12.9574 7.87347 13.2108 7.76893 13.3982 7.58268C13.4927 7.49007 13.5679 7.37962 13.6193 7.25775C13.6708 7.13587 13.6976 7.00499 13.6982 6.87268C13.6976 6.74037 13.6708 6.60949 13.6193 6.48762C13.5679 6.36574 13.4927 6.2553 13.3982 6.16268L7.7482 0.502682C7.65455 0.401177 7.5409 0.320168 7.4144 0.264761C7.2879 0.209353 7.1513 0.180749 7.01319 0.180749C6.87509 0.180749 6.73849 0.209353 6.61199 0.264761C6.48549 0.320168 6.37184 0.401177 6.2782 0.502682Z" fill="white"/>
</svg>
