<svg width="24" height="24" viewBox="0 0 24 24" fill="none" xmlns="http://www.w3.org/2000/svg">
<path d="M20 9.16889C19.9907 9.08723 19.9729 9.00678 19.9467 8.92889V8.84889C19.9039 8.75749 19.8469 8.67348 19.7778 8.6L14.4444 3.26667C14.371 3.19753 14.287 3.14052 14.1956 3.09778C14.169 3.09401 14.1421 3.09401 14.1156 3.09778C14.0253 3.04599 13.9255 3.01275 13.8222 3H10.2222C9.51498 3 8.8367 3.28095 8.3366 3.78105C7.83651 4.28115 7.55556 4.95942 7.55556 5.66667V6.55556H6.66667C5.95942 6.55556 5.28115 6.83651 4.78105 7.3366C4.28095 7.8367 4 8.51498 4 9.22222V18.1111C4 18.8184 4.28095 19.4966 4.78105 19.9967C5.28115 20.4968 5.95942 20.7778 6.66667 20.7778H13.7778C14.485 20.7778 15.1633 20.4968 15.6634 19.9967C16.1635 19.4966 16.4444 18.8184 16.4444 18.1111V17.2222H17.3333C18.0406 17.2222 18.7189 16.9413 19.219 16.4412C19.719 15.9411 20 15.2628 20 14.5556V9.22222C20 9.22222 20 9.22222 20 9.16889ZM14.6667 6.03111L16.9689 8.33333H15.5556C15.3198 8.33333 15.0937 8.23968 14.927 8.07298C14.7603 7.90628 14.6667 7.68019 14.6667 7.44444V6.03111ZM14.6667 18.1111C14.6667 18.3469 14.573 18.573 14.4063 18.7396C14.2396 18.9063 14.0135 19 13.7778 19H6.66667C6.43092 19 6.20483 18.9063 6.03813 18.7396C5.87143 18.573 5.77778 18.3469 5.77778 18.1111V9.22222C5.77778 8.98647 5.87143 8.76038 6.03813 8.59368C6.20483 8.42698 6.43092 8.33333 6.66667 8.33333H7.55556V14.5556C7.55556 15.2628 7.83651 15.9411 8.3366 16.4412C8.8367 16.9413 9.51498 17.2222 10.2222 17.2222H14.6667V18.1111ZM18.2222 14.5556C18.2222 14.7913 18.1286 15.0174 17.9619 15.1841C17.7952 15.3508 17.5691 15.4444 17.3333 15.4444H10.2222C9.98647 15.4444 9.76038 15.3508 9.59368 15.1841C9.42698 15.0174 9.33333 14.7913 9.33333 14.5556V5.66667C9.33333 5.43092 9.42698 5.20483 9.59368 5.03813C9.76038 4.87143 9.98647 4.77778 10.2222 4.77778H12.8889V7.44444C12.8889 8.15169 13.1698 8.82997 13.6699 9.33006C14.17 9.83016 14.8483 10.1111 15.5556 10.1111H18.2222V14.5556Z" fill="#475569"/>
</svg>
