<svg width="24" height="24" viewBox="0 0 24 24" fill="none" xmlns="http://www.w3.org/2000/svg">
<path d="M8.74844 10H9.69812C9.94999 10 10.1916 9.89464 10.3697 9.70711C10.5478 9.51957 10.6478 9.26522 10.6478 9C10.6478 8.73478 10.5478 8.48043 10.3697 8.29289C10.1916 8.10536 9.94999 8 9.69812 8H8.74844C8.49656 8 8.25501 8.10536 8.07691 8.29289C7.8988 8.48043 7.79875 8.73478 7.79875 9C7.79875 9.26522 7.8988 9.51957 8.07691 9.70711C8.25501 9.89464 8.49656 10 8.74844 10ZM8.74844 12C8.49656 12 8.25501 12.1054 8.07691 12.2929C7.8988 12.4804 7.79875 12.7348 7.79875 13C7.79875 13.2652 7.8988 13.5196 8.07691 13.7071C8.25501 13.8946 8.49656 14 8.74844 14H14.4466C14.6984 14 14.94 13.8946 15.1181 13.7071C15.2962 13.5196 15.3962 13.2652 15.3962 13C15.3962 12.7348 15.2962 12.4804 15.1181 12.2929C14.94 12.1054 14.6984 12 14.4466 12H8.74844ZM19.195 8.94C19.1851 8.84813 19.166 8.75763 19.138 8.67V8.58C19.0923 8.47718 19.0314 8.38267 18.9576 8.3L13.2594 2.3C13.1809 2.22222 13.0912 2.15808 12.9935 2.11C12.9652 2.10576 12.9364 2.10576 12.9081 2.11C12.8116 2.05174 12.705 2.01434 12.5947 2H6.84906C6.09344 2 5.36877 2.31607 4.83447 2.87868C4.30017 3.44129 4 4.20435 4 5V19C4 19.7956 4.30017 20.5587 4.83447 21.1213C5.36877 21.6839 6.09344 22 6.84906 22H16.3459C17.1015 22 17.8262 21.6839 18.3605 21.1213C18.8948 20.5587 19.195 19.7956 19.195 19V9C19.195 9 19.195 9 19.195 8.94ZM13.4969 5.41L15.9566 8H14.4466C14.1947 8 13.9531 7.89464 13.775 7.70711C13.5969 7.51957 13.4969 7.26522 13.4969 7V5.41ZM17.2956 19C17.2956 19.2652 17.1956 19.5196 17.0175 19.7071C16.8394 19.8946 16.5978 20 16.3459 20H6.84906C6.59719 20 6.35563 19.8946 6.17753 19.7071C5.99943 19.5196 5.89937 19.2652 5.89937 19V5C5.89937 4.73478 5.99943 4.48043 6.17753 4.29289C6.35563 4.10536 6.59719 4 6.84906 4H11.5975V7C11.5975 7.79565 11.8977 8.55871 12.432 9.12132C12.9663 9.68393 13.6909 10 14.4466 10H17.2956V19ZM14.4466 16H8.74844C8.49656 16 8.25501 16.1054 8.07691 16.2929C7.8988 16.4804 7.79875 16.7348 7.79875 17C7.79875 17.2652 7.8988 17.5196 8.07691 17.7071C8.25501 17.8946 8.49656 18 8.74844 18H14.4466C14.6984 18 14.94 17.8946 15.1181 17.7071C15.2962 17.5196 15.3962 17.2652 15.3962 17C15.3962 16.7348 15.2962 16.4804 15.1181 16.2929C14.94 16.1054 14.6984 16 14.4466 16Z" fill="#475569"/>
</svg>
