<svg width="24" height="24" viewBox="0 0 24 24" fill="none" xmlns="http://www.w3.org/2000/svg">
<path d="M0 12C0 5.37258 5.37258 0 12 0C18.6274 0 24 5.37258 24 12C24 18.6274 18.6274 24 12 24C5.37258 24 0 18.6274 0 12Z" fill="#2563EB"/>
<path d="M16.6665 11.3332H12.6665V7.33317C12.6665 7.15636 12.5963 6.98679 12.4712 6.86177C12.3462 6.73674 12.1766 6.6665 11.9998 6.6665C11.823 6.6665 11.6535 6.73674 11.5284 6.86177C11.4034 6.98679 11.3332 7.15636 11.3332 7.33317V11.3332H7.33317C7.15636 11.3332 6.98679 11.4034 6.86177 11.5284C6.73674 11.6535 6.6665 11.823 6.6665 11.9998C6.6665 12.1766 6.73674 12.3462 6.86177 12.4712C6.98679 12.5963 7.15636 12.6665 7.33317 12.6665H11.3332V16.6665C11.3332 16.8433 11.4034 17.0129 11.5284 17.1379C11.6535 17.2629 11.823 17.3332 11.9998 17.3332C12.1766 17.3332 12.3462 17.2629 12.4712 17.1379C12.5963 17.0129 12.6665 16.8433 12.6665 16.6665V12.6665H16.6665C16.8433 12.6665 17.0129 12.5963 17.1379 12.4712C17.2629 12.3462 17.3332 12.1766 17.3332 11.9998C17.3332 11.823 17.2629 11.6535 17.1379 11.5284C17.0129 11.4034 16.8433 11.3332 16.6665 11.3332Z" fill="white"/>
</svg>
