<svg width="24" height="24" viewBox="0 0 24 24" fill="none" xmlns="http://www.w3.org/2000/svg">
<rect width="24" height="24" rx="12" fill="#2563EB"/>
<path d="M16.4733 8.8067C16.4114 8.74421 16.3376 8.69461 16.2564 8.66077C16.1752 8.62692 16.088 8.6095 16 8.6095C15.912 8.6095 15.8249 8.62692 15.7436 8.66077C15.6624 8.69461 15.5886 8.74421 15.5267 8.8067L10.56 13.78L8.47334 11.6867C8.40899 11.6245 8.33303 11.5757 8.2498 11.5429C8.16656 11.5101 8.07768 11.494 7.98822 11.4955C7.89877 11.4971 7.8105 11.5162 7.72844 11.5519C7.64639 11.5875 7.57217 11.639 7.51001 11.7034C7.44785 11.7677 7.39897 11.8437 7.36617 11.9269C7.33337 12.0101 7.31728 12.099 7.31883 12.1885C7.32038 12.2779 7.33953 12.3662 7.37519 12.4483C7.41085 12.5303 7.46233 12.6045 7.52667 12.6667L10.0867 15.2267C10.1486 15.2892 10.2224 15.3388 10.3036 15.3726C10.3849 15.4065 10.472 15.4239 10.56 15.4239C10.648 15.4239 10.7352 15.4065 10.8164 15.3726C10.8976 15.3388 10.9714 15.2892 11.0333 15.2267L16.4733 9.7867C16.541 9.72427 16.595 9.6485 16.632 9.56417C16.6689 9.47983 16.688 9.38876 16.688 9.2967C16.688 9.20463 16.6689 9.11356 16.632 9.02923C16.595 8.94489 16.541 8.86912 16.4733 8.8067Z" fill="white"/>
</svg>
