<svg width="5" height="18" viewBox="0 0 5 18" fill="none" xmlns="http://www.w3.org/2000/svg">
<path d="M2.36621 4C2.76177 4 3.14845 3.8827 3.47735 3.66294C3.80625 3.44318 4.0626 3.13082 4.21397 2.76537C4.36535 2.39992 4.40495 1.99778 4.32778 1.60982C4.25061 1.22186 4.06013 0.865492 3.78042 0.585787C3.50072 0.306082 3.14435 0.115601 2.75639 0.0384303C2.36843 -0.0387401 1.9663 0.000866562 1.60085 0.152242C1.23539 0.303617 0.923036 0.559962 0.703273 0.88886C0.48351 1.21776 0.366212 1.60444 0.366212 2C0.366212 2.53043 0.576926 3.03914 0.951999 3.41421C1.32707 3.78929 1.83578 4 2.36621 4ZM2.36621 14C1.97065 14 1.58397 14.1173 1.25507 14.3371C0.926173 14.5568 0.669828 14.8692 0.518453 15.2346C0.367077 15.6001 0.327471 16.0022 0.404641 16.3902C0.481812 16.7781 0.672294 17.1345 0.951999 17.4142C1.2317 17.6939 1.58807 17.8844 1.97603 17.9616C2.36399 18.0387 2.76613 17.9991 3.13158 17.8478C3.49703 17.6964 3.80939 17.44 4.02915 17.1111C4.24891 16.7822 4.36621 16.3956 4.36621 16C4.36621 15.4696 4.1555 14.9609 3.78042 14.5858C3.40535 14.2107 2.89664 14 2.36621 14ZM2.36621 7C1.97065 7 1.58397 7.1173 1.25507 7.33706C0.926173 7.55682 0.669828 7.86918 0.518453 8.23463C0.367077 8.60009 0.327471 9.00222 0.404641 9.39018C0.481812 9.77814 0.672294 10.1345 0.951999 10.4142C1.2317 10.6939 1.58807 10.8844 1.97603 10.9616C2.36399 11.0387 2.76613 10.9991 3.13158 10.8478C3.49703 10.6964 3.80939 10.44 4.02915 10.1111C4.24891 9.78224 4.36621 9.39556 4.36621 9C4.36621 8.46957 4.1555 7.96086 3.78042 7.58579C3.40535 7.21071 2.89664 7 2.36621 7Z" fill="#475569"/>
</svg>
