<svg width="24" height="24" viewBox="0 0 24 24" fill="none" xmlns="http://www.w3.org/2000/svg">
<rect width="24" height="24" rx="12" fill="#2E844A"/>
<path d="M16.4735 8.80657C16.4115 8.74409 16.3378 8.69449 16.2565 8.66065C16.1753 8.6268 16.0881 8.60938 16.0001 8.60938C15.9121 8.60938 15.825 8.6268 15.7437 8.66065C15.6625 8.69449 15.5888 8.74409 15.5268 8.80657L10.5601 13.7799L8.47346 11.6866C8.40911 11.6244 8.33315 11.5755 8.24992 11.5427C8.16668 11.5099 8.0778 11.4938 7.98834 11.4954C7.89889 11.4969 7.81062 11.5161 7.72857 11.5518C7.64651 11.5874 7.57229 11.6389 7.51013 11.7032C7.44797 11.7676 7.39909 11.8435 7.36629 11.9268C7.33349 12.01 7.3174 12.0989 7.31895 12.1884C7.3205 12.2778 7.33965 12.3661 7.37531 12.4481C7.41097 12.5302 7.46245 12.6044 7.5268 12.6666L10.0868 15.2266C10.1488 15.2891 10.2225 15.3387 10.3037 15.3725C10.385 15.4063 10.4721 15.4238 10.5601 15.4238C10.6481 15.4238 10.7353 15.4063 10.8165 15.3725C10.8978 15.3387 10.9715 15.2891 11.0335 15.2266L16.4735 9.78657C16.5411 9.72415 16.5951 9.64838 16.6321 9.56404C16.669 9.47971 16.6881 9.38864 16.6881 9.29657C16.6881 9.20451 16.669 9.11344 16.6321 9.0291C16.5951 8.94477 16.5411 8.869 16.4735 8.80657Z" fill="white"/>
</svg>
