<svg width="169" height="37" viewBox="0 0 169 37" fill="none" xmlns="http://www.w3.org/2000/svg">
<path d="M16.3519 2.13143C16.3519 2.13143 14.5265 2.13143 13.842 4.41526L8.67029 21.3156H15.6674C15.6674 21.3156 17.4927 21.3156 18.1772 19.0318L23.3489 2.0553L16.3519 2.13143Z" fill="#326295"/>
<path d="M6.54077 4.87215C6.54077 4.87215 4.94361 4.87215 4.41123 6.85147L3.05176e-05 21.3158H6.00839C6.00839 21.3158 7.60554 21.3158 8.13793 19.3364L12.5491 4.79602L6.54077 4.87215Z" fill="#00A9CE"/>
<path d="M27.1517 0C27.1517 0 25.0982 0 24.4137 2.51222L18.7096 21.3158H26.5433C26.5433 21.3158 28.5968 21.3158 29.2813 18.8036L34.9854 0H27.1517Z" fill="#00245D"/>
<path d="M69.6665 0.913574H64.0385L61.1484 11.4953L58.7907 0.913574H53.6189L51.2612 11.7998L48.4472 0.913574H42.8951L48.0669 20.3262H53.8471L56.1287 9.97278L58.1822 20.3262H63.8863L69.6665 0.913574ZM84.041 20.4023V16.1391H74.9143V13.8553H82.5198V9.97278H74.9143V7.91733H83.8888V3.65417H70.0468V20.4784L84.041 20.4023ZM101.077 11.876C101.077 6.92767 97.959 3.95869 93.1676 3.65417C92.2549 3.57805 91.3422 3.57805 90.4296 3.57805C88.8324 3.57805 87.2353 3.65417 85.5621 3.65417V20.4784H93.0915C98.1872 20.4023 101.077 16.8243 101.077 11.876ZM96.1337 11.7998C96.1337 14.3882 94.3084 16.3675 91.7225 16.3675H90.4296V7.99346H91.3422C93.8521 7.99346 96.1337 8.90699 96.1337 11.7998ZM117.429 15.5301C117.429 13.7792 116.212 11.876 114.539 11.3431C115.984 10.5818 116.669 9.05925 116.669 7.53669C116.669 5.32899 114.843 3.65417 112.714 3.65417H102.522V20.4023H112.942C115.376 20.4023 117.429 17.9662 117.429 15.5301ZM112.029 8.90699C112.029 9.66827 111.345 10.2012 110.584 10.2012H107.314V7.61282C108.074 7.61282 108.759 7.61282 109.519 7.61282C110.508 7.61282 112.029 7.46056 112.029 8.90699ZM112.562 14.9972C112.562 15.9107 111.801 16.5198 110.888 16.5198H107.314V13.5508C108.15 13.5508 108.911 13.4747 109.748 13.4747C110.964 13.4747 112.562 13.3224 112.562 14.9972ZM133.173 13.1701V3.65417H128.305V14.0076C128.305 15.5301 127.392 16.672 125.871 16.672C124.426 16.672 123.209 15.6824 123.209 14.1598V3.65417H118.342C118.342 5.78575 118.342 7.91733 118.342 10.0489C118.342 11.1908 118.342 12.3327 118.418 13.4747C118.57 18.3468 121.156 20.6307 125.947 20.6307C130.663 20.6307 133.173 18.0423 133.173 13.1701ZM148.764 15.1495C148.764 8.90699 139.257 10.2012 139.257 8.22184C139.257 7.30831 140.322 7.0038 141.082 7.0038C141.995 7.0038 142.908 7.53669 143.212 8.45023H147.927C147.851 4.33932 144.429 3.42579 141.006 3.42579C137.66 3.42579 134.542 4.56771 134.542 8.45023C134.542 14.2359 143.896 13.3985 143.896 15.3779C143.896 16.5959 142.527 16.9004 141.539 16.9004C140.17 16.9004 139.409 16.2914 139.029 14.9972H134.161C134.465 19.1842 137.888 20.6307 141.615 20.6307C144.657 20.6307 148.764 18.9559 148.764 15.1495ZM164.279 20.4023V3.65417H159.412V9.36376H154.468V3.65417H149.6V20.4023H154.468V13.9314H159.412V20.4023H164.279Z" fill="#00245D"/>
<path d="M165.8 3.6542C165.8 2.89292 166.333 2.43616 167.017 2.43616C167.702 2.43616 168.234 2.96905 168.234 3.6542C168.234 4.33935 167.702 4.87225 167.017 4.87225C166.333 4.87225 165.8 4.41548 165.8 3.6542ZM167.93 3.6542C167.93 3.04518 167.55 2.66454 167.017 2.66454C166.485 2.66454 166.104 3.12131 166.104 3.6542C166.104 4.26322 166.485 4.64386 167.017 4.64386C167.55 4.64386 167.93 4.26322 167.93 3.6542ZM166.561 2.96905H167.017C167.321 2.96905 167.55 3.04518 167.55 3.34969C167.55 3.50195 167.473 3.6542 167.321 3.73033L167.626 4.26322H167.321L167.093 3.80646H166.865V4.26322H166.561V2.96905ZM166.941 3.6542C167.093 3.6542 167.245 3.57807 167.245 3.42582C167.245 3.27356 167.169 3.19744 167.017 3.19744H166.865V3.6542H166.941Z" fill="#00245D"/>
<path d="M3.22508 36.5205C2.64322 36.5205 2.10748 36.3855 1.61786 36.1155C1.12825 35.8455 0.734425 35.4476 0.436398 34.9218C0.145466 34.389 0 33.7353 0 32.9608C0 32.1934 0.149014 31.5397 0.447041 30.9997C0.752165 30.4526 1.15308 30.037 1.6498 29.7528C2.1536 29.4615 2.69644 29.3158 3.2783 29.3158C3.72535 29.3158 4.12626 29.4082 4.48106 29.5929C4.83585 29.7705 5.13033 29.9801 5.3645 30.2217L4.53428 31.2236C4.35688 31.0601 4.16884 30.9287 3.97015 30.8292C3.77856 30.7226 3.55859 30.6693 3.31024 30.6693C2.99802 30.6693 2.71063 30.7582 2.44808 30.9358C2.19263 31.1134 1.98685 31.3692 1.83074 31.7032C1.68173 32.0371 1.60722 32.4386 1.60722 32.9075C1.60722 33.618 1.75978 34.1722 2.06491 34.5701C2.37003 34.968 2.77804 35.167 3.28895 35.167C3.57278 35.167 3.82469 35.103 4.04466 34.9751C4.27173 34.8472 4.47041 34.6945 4.64072 34.5168L5.47093 35.4974C4.88907 36.1795 4.14045 36.5205 3.22508 36.5205Z" fill="#00245D"/>
<path d="M13.0116 36.5205C12.1104 36.5205 11.4221 36.2541 10.9467 35.7212C10.4713 35.1883 10.2336 34.3392 10.2336 33.174V29.4437H11.8088V33.3338C11.8088 34.0159 11.9117 34.492 12.1175 34.762C12.3233 35.032 12.6213 35.167 13.0116 35.167C13.4019 35.167 13.7034 35.032 13.9163 34.762C14.1292 34.492 14.2356 34.0159 14.2356 33.3338V29.4437H15.7471V33.174C15.7471 34.3392 15.5129 35.1883 15.0446 35.7212C14.5833 36.2541 13.9057 36.5205 13.0116 36.5205Z" fill="#00245D"/>
<path d="M23.3071 36.5205C22.853 36.5205 22.3988 36.4353 21.9447 36.2647C21.4977 36.0942 21.0967 35.8455 20.7419 35.5187L21.636 34.4422C21.8844 34.6554 22.1611 34.8295 22.4662 34.9645C22.7714 35.0995 23.0658 35.167 23.3497 35.167C23.6761 35.167 23.9174 35.1066 24.0735 34.9858C24.2367 34.865 24.3183 34.7016 24.3183 34.4955C24.3183 34.2753 24.226 34.1154 24.0415 34.0159C23.8641 33.9093 23.6229 33.7921 23.3177 33.6642L22.413 33.2805C22.1789 33.1811 21.9553 33.0496 21.7425 32.8862C21.5296 32.7157 21.3557 32.5061 21.2209 32.2574C21.0861 32.0087 21.0187 31.7174 21.0187 31.3834C21.0187 30.9997 21.1216 30.6516 21.3273 30.339C21.5402 30.0263 21.8312 29.7776 22.2001 29.5929C22.5762 29.4082 23.0055 29.3158 23.488 29.3158C23.8854 29.3158 24.2828 29.394 24.6802 29.5503C25.0775 29.7066 25.4252 29.934 25.7233 30.2324L24.925 31.2236C24.6979 31.0459 24.4708 30.9109 24.2438 30.8186C24.0167 30.7191 23.7648 30.6693 23.488 30.6693C23.2184 30.6693 23.002 30.7262 22.8388 30.8399C22.6827 30.9465 22.6046 31.0992 22.6046 31.2982C22.6046 31.5113 22.704 31.6712 22.9026 31.7778C23.1084 31.8843 23.3603 31.998 23.6584 32.1188L24.5524 32.4812C24.9711 32.6517 25.3046 32.8862 25.553 33.1846C25.8013 33.483 25.9255 33.8774 25.9255 34.3676C25.9255 34.7513 25.8226 35.1066 25.6168 35.4334C25.411 35.7603 25.113 36.0232 24.7227 36.2221C24.3325 36.4211 23.8606 36.5205 23.3071 36.5205Z" fill="#00245D"/>
<path d="M32.1855 36.3926V30.7653H30.2802V29.4437H35.666V30.7653H33.7608V36.3926H32.1855Z" fill="#00245D"/>
<path d="M43.2055 36.5205C42.5811 36.5205 42.0311 36.3749 41.5557 36.0836C41.0874 35.7922 40.7184 35.3766 40.4488 34.8366C40.1862 34.2895 40.0549 33.6393 40.0549 32.8862C40.0549 32.1259 40.1862 31.4829 40.4488 30.9571C40.7184 30.4242 41.0874 30.0192 41.5557 29.7421C42.0311 29.4579 42.5811 29.3158 43.2055 29.3158C43.83 29.3158 44.3763 29.4579 44.8447 29.7421C45.3201 30.0192 45.6891 30.4242 45.9516 30.9571C46.2213 31.49 46.3561 32.133 46.3561 32.8862C46.3561 33.6393 46.2213 34.2895 45.9516 34.8366C45.6891 35.3766 45.3201 35.7922 44.8447 36.0836C44.3763 36.3749 43.83 36.5205 43.2055 36.5205ZM43.2055 35.167C43.6809 35.167 44.057 34.9609 44.3338 34.5488C44.6105 34.1367 44.7489 33.5825 44.7489 32.8862C44.7489 32.1899 44.6105 31.6463 44.3338 31.2555C44.057 30.8647 43.6809 30.6693 43.2055 30.6693C42.7301 30.6693 42.354 30.8647 42.0773 31.2555C41.8005 31.6463 41.6622 32.1899 41.6622 32.8862C41.6622 33.5825 41.8005 34.1367 42.0773 34.5488C42.354 34.9609 42.7301 35.167 43.2055 35.167Z" fill="#00245D"/>
<path d="M51.5992 36.3926V29.4437H53.5577C54.2672 29.4437 54.881 29.5645 55.399 29.8061C55.917 30.0476 56.318 30.4242 56.6018 30.9358C56.8927 31.4403 57.0382 32.0904 57.0382 32.8862C57.0382 33.682 56.8963 34.3392 56.6124 34.8579C56.3286 35.3766 55.9312 35.7638 55.4203 36.0196C54.9165 36.2683 54.324 36.3926 53.6428 36.3926H51.5992ZM53.1638 35.1243H53.4619C53.8592 35.1243 54.2034 35.0533 54.4943 34.9112C54.7923 34.7691 55.023 34.5346 55.1862 34.2078C55.3494 33.8809 55.431 33.4404 55.431 32.8862C55.431 32.332 55.3494 31.8986 55.1862 31.5859C55.023 31.2662 54.7923 31.0424 54.4943 30.9145C54.2034 30.7795 53.8592 30.712 53.4619 30.712H53.1638V35.1243Z" fill="#00245D"/>
<path d="M63.278 36.3926V33.92L61.1811 29.4437H62.8629L63.4802 31.0424C63.5796 31.3053 63.6753 31.5611 63.7676 31.8097C63.8598 32.0513 63.9521 32.3071 64.0443 32.5771H64.0869C64.1862 32.3071 64.2856 32.0513 64.3849 31.8097C64.4843 31.5611 64.5801 31.3053 64.6723 31.0424L65.3003 29.4437H66.9395L64.8426 33.92V36.3926H63.278Z" fill="#00245D"/>
<path d="M79.2606 31.1276C79.2606 31.2555 79.2784 31.3905 79.3138 31.5326C79.3564 31.6747 79.4132 31.8168 79.4841 31.959C79.7325 31.8097 79.9418 31.6534 80.1121 31.49C80.2824 31.3266 80.3676 31.1276 80.3676 30.8932C80.3676 30.7297 80.3285 30.5983 80.2505 30.4988C80.1724 30.3993 80.0518 30.3496 79.8886 30.3496C79.7112 30.3496 79.5622 30.4207 79.4416 30.5628C79.3209 30.6978 79.2606 30.8861 79.2606 31.1276ZM79.4416 36.5205C78.9378 36.5205 78.512 36.4317 78.1643 36.2541C77.8237 36.0693 77.5647 35.8278 77.3873 35.5293C77.217 35.2238 77.1318 34.8934 77.1318 34.5382C77.1318 34.055 77.256 33.6642 77.5044 33.3658C77.7598 33.0603 78.0579 32.7974 78.3985 32.5771C78.2636 32.3284 78.1572 32.0833 78.0791 31.8417C78.0082 31.593 77.9727 31.3586 77.9727 31.1383C77.9727 30.8043 78.0472 30.5024 78.1962 30.2324C78.3523 29.9553 78.5723 29.735 78.8561 29.5716C79.14 29.4011 79.4735 29.3158 79.8567 29.3158C80.3818 29.3158 80.7969 29.4579 81.102 29.7421C81.4071 30.0263 81.5597 30.41 81.5597 30.8932C81.5597 31.1916 81.4887 31.4616 81.3468 31.7032C81.2049 31.9376 81.0239 32.1508 80.804 32.3426C80.584 32.5274 80.3534 32.7015 80.1121 32.8649C80.3108 33.0922 80.5272 33.3161 80.7614 33.5363C81.0027 33.7495 81.251 33.9484 81.5065 34.1332C81.6839 33.9058 81.84 33.6536 81.9748 33.3765C82.1096 33.0993 82.2196 32.7974 82.3048 32.4705H83.731C83.6033 32.8897 83.4436 33.2947 83.2521 33.6855C83.0676 34.0763 82.8405 34.4529 82.5709 34.8153C82.7908 34.929 83.0002 35.0249 83.1988 35.103C83.4046 35.1741 83.5962 35.2238 83.7736 35.2522L83.4011 36.5205C83.1172 36.4637 82.8228 36.3749 82.5176 36.2541C82.2196 36.1333 81.9216 35.9876 81.6236 35.8171C81.3326 36.0374 81.0062 36.2115 80.6443 36.3393C80.2824 36.4601 79.8815 36.5205 79.4416 36.5205ZM78.6113 34.4422C78.6113 34.7051 78.7071 34.9183 78.8987 35.0817C79.0903 35.2451 79.3387 35.3268 79.6438 35.3268C79.9347 35.3268 80.2257 35.2345 80.5166 35.0497C80.254 34.8295 79.9986 34.5986 79.7502 34.357C79.509 34.1154 79.2855 33.8667 79.0797 33.6109C78.9448 33.7317 78.8313 33.8596 78.7391 33.9946C78.6539 34.1296 78.6113 34.2788 78.6113 34.4422Z" fill="#00245D"/>
<path d="M97.6871 36.5205C97.1052 36.5205 96.5695 36.3855 96.0799 36.1155C95.5903 35.8455 95.1965 35.4476 94.8984 34.9218C94.6075 34.389 94.462 33.7353 94.462 32.9608C94.462 32.1934 94.611 31.5397 94.9091 30.9997C95.2142 30.4526 95.6151 30.037 96.1118 29.7528C96.6156 29.4615 97.1585 29.3158 97.7403 29.3158C98.1874 29.3158 98.5883 29.4082 98.9431 29.5929C99.2979 29.7705 99.5924 29.9801 99.8265 30.2217L98.9963 31.2236C98.8189 31.0601 98.6309 30.9287 98.4322 30.8292C98.2406 30.7226 98.0206 30.6693 97.7723 30.6693C97.46 30.6693 97.1727 30.7582 96.9101 30.9358C96.6547 31.1134 96.4489 31.3692 96.2928 31.7032C96.1437 32.0371 96.0692 32.4386 96.0692 32.9075C96.0692 33.618 96.2218 34.1722 96.5269 34.5701C96.8321 34.968 97.2401 35.167 97.751 35.167C98.0348 35.167 98.2867 35.103 98.5067 34.9751C98.7337 34.8472 98.9324 34.6945 99.1027 34.5168L99.933 35.4974C99.3511 36.1795 98.6025 36.5205 97.6871 36.5205Z" fill="#00245D"/>
<path d="M104.925 36.3926V29.4437H106.49V35.0711H109.236V36.3926H104.925Z" fill="#00245D"/>
<path d="M114.372 36.3926V29.4437H118.715V30.7653H115.937V32.1615H118.3V33.4724H115.937V35.0711H118.822V36.3926H114.372Z" fill="#00245D"/>
<path d="M125.77 32.8755L125.6 33.515H127.08L126.92 32.8755C126.828 32.5274 126.732 32.1579 126.633 31.7671C126.54 31.3763 126.448 30.9997 126.356 30.6374H126.313C126.228 31.0068 126.139 31.387 126.047 31.7778C125.962 32.1615 125.87 32.5274 125.77 32.8755ZM123.259 36.3926L125.43 29.4437H127.314L129.485 36.3926H127.825L127.399 34.7407H125.281L124.855 36.3926H123.259Z" fill="#00245D"/>
<path d="M134.182 36.3926V29.4437H136.683C137.173 29.4437 137.62 29.5112 138.024 29.6462C138.429 29.7741 138.751 29.9943 138.993 30.307C139.234 30.6196 139.355 31.053 139.355 31.6072C139.355 32.1188 139.241 32.5416 139.014 32.8755C138.794 33.2024 138.496 33.4475 138.12 33.6109L139.695 36.3926H137.939L136.608 33.888H135.746V36.3926H134.182ZM135.746 32.6411H136.555C136.967 32.6411 137.279 32.5558 137.492 32.3853C137.712 32.2076 137.822 31.9483 137.822 31.6072C137.822 31.2662 137.712 31.0282 137.492 30.8932C137.279 30.7582 136.967 30.6907 136.555 30.6907H135.746V32.6411Z" fill="#00245D"/>
<path d="M144.648 36.3926V29.4437H146.212V36.3926H144.648Z" fill="#00245D"/>
<path d="M151.787 36.3926V29.4437H153.394L155.204 32.8968L155.885 34.4316H155.928C155.899 34.0621 155.86 33.65 155.811 33.1953C155.761 32.7405 155.736 32.3071 155.736 31.895V29.4437H157.226V36.3926H155.619L153.81 32.9288L153.128 31.4154H153.086C153.121 31.7991 153.16 32.2112 153.203 32.6517C153.253 33.0922 153.277 33.5186 153.277 33.9307V36.3926H151.787Z" fill="#00245D"/>
<path d="M165.869 36.5205C165.238 36.5205 164.663 36.3855 164.145 36.1155C163.634 35.8455 163.226 35.4476 162.921 34.9218C162.623 34.389 162.474 33.7353 162.474 32.9608C162.474 32.1934 162.627 31.5397 162.932 30.9997C163.244 30.4526 163.656 30.037 164.166 29.7528C164.677 29.4615 165.241 29.3158 165.859 29.3158C166.363 29.3158 166.795 29.4082 167.157 29.5929C167.519 29.7776 167.814 29.9872 168.041 30.2217L167.221 31.2236C167.044 31.0672 166.856 30.9358 166.657 30.8292C166.458 30.7226 166.21 30.6693 165.912 30.6693C165.373 30.6693 164.933 30.8683 164.592 31.2662C164.252 31.6641 164.081 32.2112 164.081 32.9075C164.081 33.618 164.245 34.1722 164.571 34.5701C164.897 34.968 165.383 35.167 166.029 35.167C166.171 35.167 166.309 35.1492 166.444 35.1137C166.579 35.0782 166.689 35.0249 166.774 34.9538V33.7601H165.625V32.4812H168.158V35.6786C167.917 35.913 167.594 36.112 167.189 36.2754C166.792 36.4388 166.352 36.5205 165.869 36.5205Z" fill="#00245D"/>
</svg>
