<svg width="137" height="136" viewBox="0 0 137 136" fill="none" xmlns="http://www.w3.org/2000/svg">
<g clip-path="url(#clip0_6270_225583)">
<rect x="10.2144" y="8.5" width="118.691" height="118.691" rx="59.3455" fill="#DBEAFE"/>
<path fill-rule="evenodd" clip-rule="evenodd" d="M121.993 60.5857C122.025 60.3013 122.041 60.0122 122.041 59.7193C122.041 55.456 118.585 52 114.322 52C110.058 52 106.602 55.456 106.602 59.7193C106.602 59.9819 106.615 60.2415 106.641 60.4973C104.611 60.6107 103 62.2926 103 64.3509C103 66.4825 104.728 68.2105 106.86 68.2105H121.14C123.272 68.2105 125 66.4825 125 64.3509C125 62.5122 123.714 60.9738 121.993 60.5857Z" fill="white"/>
<path fill-rule="evenodd" clip-rule="evenodd" d="M34.8993 75.7077C34.9426 75.3199 34.9649 74.9257 34.9649 74.5263C34.9649 68.7128 30.2521 64 24.4385 64C18.625 64 13.9122 68.7128 13.9122 74.5263C13.9122 74.8844 13.9301 75.2383 13.965 75.5872C11.197 75.7418 9 78.0354 9 80.8421C9 83.7488 11.3564 86.1052 14.2632 86.1052H33.7368C36.6436 86.1052 39 83.7488 39 80.8421C39 78.3348 37.2467 76.2369 34.8993 75.7077Z" fill="white"/>
<path d="M2.11608 82.7368C-0.779819 69.6919 0.231857 56.0829 5.02475 43.6096C9.81764 31.1362 18.1793 20.3515 29.0653 12.6023L31.9294 16.6257C21.834 23.8121 14.0796 33.8136 9.63482 45.381C5.19003 56.9484 4.25183 69.5691 6.9374 81.6665L2.11608 82.7368Z" fill="#F1F5F9"/>
<path d="M10.6599 103.756C7.37954 98.4501 4.84499 92.7176 3.12757 86.7202L7.87543 85.3606C9.46812 90.9224 11.8186 96.2385 14.8607 101.16L10.6599 103.756Z" fill="#F1F5F9"/>
<path d="M43.7667 92L35.5 61.7931L97.5 19L43.7667 92Z" fill="#60A5FA"/>
<path d="M49.1124 68.8155L44 92L98 19L49.1124 68.8155Z" fill="#2563EB"/>
<path d="M106.321 5.72281C107.784 5.03464 109.417 6.27656 109.144 7.87007L94.4764 93.5435C93.9846 96.4162 90.6842 97.8154 88.2776 96.1715L48.5 69L88.9649 24.9172L35.5 62L17.308 55.0857C14.0083 53.8315 13.8322 49.2296 17.0265 47.7271L106.321 5.72281Z" fill="#BFDBFE"/>
<mask id="mask0_6270_225583" style="mask-type:alpha" maskUnits="userSpaceOnUse" x="14" y="5" width="96" height="92">
<path d="M106.321 5.72281C107.784 5.03464 109.417 6.27656 109.144 7.87007L94.4764 93.5435C93.9846 96.4162 90.6842 97.8154 88.2776 96.1715L48.5 69L88.9649 24.9172L35.5 62L17.308 55.0857C14.0083 53.8315 13.8322 49.2296 17.0265 47.7271L106.321 5.72281Z" fill="#BFDBFE"/>
</mask>
<g mask="url(#mask0_6270_225583)">
<path d="M93.5578 92.3608C94.1326 92.7508 94.4294 93.4383 94.3192 94.1241C93.903 96.712 90.9361 97.9875 88.7717 96.5091L48.5 69.0001L52.5 64.5L93.5578 92.3608Z" fill="#93C5FD"/>
<path d="M93.5578 92.3608C94.1326 92.7508 94.4294 93.4383 94.3192 94.1241C93.903 96.712 90.9361 97.9875 88.7717 96.5091L48.5 69.0001L52.5 64.5L93.5578 92.3608Z" fill="#93C5FD"/>
<path d="M44.8134 60.493C46.4365 61.0772 46.6082 63.3046 45.0938 64.1306L44.9874 64.1887C44.0367 64.7073 42.9163 64.8182 41.8824 64.4961L13 55.5L9.99989 47.9623L44.8134 60.493Z" fill="#93C5FD"/>
<path d="M44.8134 60.493C46.4365 61.0772 46.6082 63.3046 45.0938 64.1306L44.9874 64.1887C44.0367 64.7073 42.9163 64.8182 41.8824 64.4961L13 55.5L9.99989 47.9623L44.8134 60.493Z" fill="#93C5FD"/>
</g>
<path d="M43.5032 92C37.8456 98.5451 28.9552 116.501 48.5258 125.71C57.041 129.717 64.2447 127.869 69.3809 124.144M69.3809 124.144C76.0493 119.308 79.2325 111.309 77.2757 108.855C76.5829 107.465 74.3314 104.789 70.8675 105.206C66.7123 105.706 58.4099 111.968 69.3809 124.144ZM69.3809 124.144C69.8418 124.656 70.3368 125.178 70.8675 125.71C81.3976 136.275 92.3434 128.606 96.5 123.451" stroke="#2563EB" stroke-width="2" stroke-dasharray="3 3"/>
</g>
<defs>
<clipPath id="clip0_6270_225583">
<rect width="136" height="136" fill="white" transform="translate(0.5)"/>
</clipPath>
</defs>
</svg>
