<svg width="136" height="136" viewBox="0 0 136 136" fill="none" xmlns="http://www.w3.org/2000/svg">
<path d="M136 68C136 75.0496 134.904 82.0564 132.751 88.7691L127.571 87.1076C129.551 80.9319 130.56 74.4857 130.56 68H136Z" fill="#F1F5F9"/>
<path d="M105.623 11.3566C114.078 16.9726 121.169 24.41 126.375 33.1235C131.581 41.8369 134.77 51.6052 135.709 61.7119L130.292 62.2149C129.428 52.9168 126.494 43.9299 121.705 35.9136C116.915 27.8972 110.392 21.0547 102.614 15.8881L105.623 11.3566Z" fill="#F1F5F9"/>
<rect x="9" y="9" width="118.691" height="118.691" rx="59.3455" fill="#EFF6FF"/>
<path d="M66.8084 18.6369L18.1501 53.8115C17.5896 54.2167 17.5997 55.0548 18.1698 55.4463L66.8183 88.8555C67.1636 89.0926 67.62 89.0894 67.9619 88.8476L116.034 54.8452C116.595 54.4487 116.598 53.6181 116.041 53.2171L67.9783 18.6356C67.6287 18.3841 67.1574 18.3846 66.8084 18.6369Z" fill="#3B82F6"/>
<rect x="30.9639" y="21.8572" width="71.6429" height="94.7143" rx="4" fill="#F8FAFC"/>
<path d="M90.4639 21.8572H98.6067C100.816 21.8572 102.607 23.648 102.607 25.8572V34H94.4639C92.2547 34 90.4639 32.2092 90.4639 30V21.8572Z" fill="#CBD5E1"/>
<path d="M66.4519 43.232C66.4519 43.232 65.3968 43.232 65.0011 44.5521L62.0117 54.321H66.0562C66.0562 54.321 67.1113 54.321 67.507 53.0009L70.4964 43.188L66.4519 43.232Z" fill="#326295"/>
<path d="M60.7807 44.8165C60.7807 44.8165 59.8575 44.8165 59.5498 45.9606L57 54.3213H60.473C60.473 54.3213 61.3962 54.3213 61.7039 53.1772L64.2537 44.7725L60.7807 44.8165Z" fill="#00A9CE"/>
<path d="M72.6952 42C72.6952 42 71.5082 42 71.1126 43.4521L67.8154 54.3211H72.3435C72.3435 54.3211 73.5305 54.3211 73.9261 52.869L77.2233 42H72.6952Z" fill="#00245D"/>
<path d="M17.6074 55.3417C17.6074 54.5342 18.5151 54.0597 19.1782 54.5206L66.8224 87.6391C67.1655 87.8776 67.6208 87.8776 67.9639 87.6391L115.608 54.5206C116.271 54.0597 117.179 54.5342 117.179 55.3417V116.786C117.179 117.338 116.731 117.786 116.179 117.786H18.6074C18.0551 117.786 17.6074 117.338 17.6074 116.786V55.3417Z" fill="#BFDBFE"/>
<path d="M17.6074 112.714C17.6074 112.162 18.0551 111.714 18.6074 111.714H116.179C116.731 111.714 117.179 112.162 117.179 112.714V116.786C117.179 117.338 116.731 117.786 116.179 117.786H18.6074C18.0551 117.786 17.6074 117.338 17.6074 116.786V112.714Z" fill="#3B82F6"/>
<path d="M58.4882 83.3929L19.2376 115.248C18.584 115.779 17.6074 115.314 17.6074 114.472V54.1739C17.6074 53.3574 18.533 52.8851 19.1942 53.3642L58.4448 81.8067C58.9773 82.1925 58.9988 82.9785 58.4882 83.3929Z" fill="#DBEAFE"/>
<path d="M76.2979 83.3929L115.549 115.248C116.202 115.779 117.179 115.314 117.179 114.472V54.1739C117.179 53.3574 116.253 52.8851 115.592 53.3642L76.3413 81.8067C75.8088 82.1925 75.7873 82.9785 76.2979 83.3929Z" fill="#DBEAFE"/>
</svg>
