<svg width="136" height="136" viewBox="0 0 136 136" fill="none" xmlns="http://www.w3.org/2000/svg">
<path d="M5.8644 95.6255C3.00043 89.1838 1.15558 82.336 0.395937 75.3274L5.80426 74.7412C6.50313 81.1891 8.2004 87.4891 10.8352 93.4154L5.8644 95.6255Z" fill="#F1F5F9"/>
<path d="M58.0991 135.275C48.0571 133.797 38.4733 130.09 30.0509 124.426C21.6284 118.761 14.5808 111.283 9.4252 102.54L14.1112 99.7766C18.8544 107.82 25.3381 114.7 33.0868 119.912C40.8355 125.123 49.6525 128.534 58.8911 129.893L58.0991 135.275Z" fill="#F1F5F9"/>
<rect x="10.4902" y="7.41821" width="118.691" height="118.691" rx="59.3455" fill="#EFF6FF"/>
<path d="M44.4893 23.4909C44.4893 15.9798 50.5782 9.89087 58.0893 9.89087H79.1074C86.6185 9.89087 92.7074 15.9798 92.7074 23.4909V51.9272C92.7074 59.4383 86.6185 65.5272 79.1074 65.5272H58.0893C50.5782 65.5272 44.4893 59.4383 44.4893 51.9272V23.4909Z" stroke="#CBD5E1" stroke-width="9"/>
<path opacity="0.2" d="M46.4893 23.4909C46.4893 17.0844 51.6828 11.8909 58.0893 11.8909H79.1074C85.5139 11.8909 90.7074 17.0844 90.7074 23.4909V51.9272C90.7074 58.3337 85.5139 63.5272 79.1074 63.5272H58.0893C51.6828 63.5272 46.4893 58.3337 46.4893 51.9272V23.4909Z" stroke="#A7AFBC" stroke-width="4"/>
<rect x="25.6064" y="46.1428" width="85" height="64.3571" rx="5" fill="#3B82F6"/>
<path d="M25.6064 102H110.606V105.5C110.606 108.261 108.368 110.5 105.606 110.5H30.6064C27.845 110.5 25.6064 108.261 25.6064 105.5V102Z" fill="#1D4ED8"/>
<circle cx="110.017" cy="103.855" r="19.7818" fill="#A7AFBC"/>
<path opacity="0.2" d="M91.1287 109.732C92.5308 114.238 95.4975 118.094 99.4932 120.605C103.489 123.115 108.251 124.115 112.919 123.422C117.586 122.73 121.853 120.392 124.949 116.83C128.044 113.268 129.764 108.717 129.798 103.999L121.52 103.938C121.5 106.682 120.5 109.329 118.7 111.4C116.9 113.471 114.419 114.831 111.704 115.233C108.99 115.636 106.221 115.054 103.898 113.595C101.574 112.135 99.849 109.892 99.0337 107.272L91.1287 109.732Z" fill="#64748B"/>
<path d="M109.139 107.922C109.086 107.981 109.036 108.043 108.991 108.108C108.944 108.177 108.907 108.251 108.88 108.33C108.844 108.4 108.819 108.475 108.805 108.553C108.799 108.635 108.799 108.718 108.805 108.8C108.801 108.962 108.835 109.123 108.904 109.27C108.96 109.423 109.048 109.563 109.164 109.678C109.279 109.793 109.418 109.882 109.572 109.938C109.72 110.003 109.88 110.037 110.042 110.037C110.203 110.037 110.364 110.003 110.512 109.938C110.665 109.882 110.804 109.793 110.92 109.678C111.035 109.563 111.124 109.423 111.179 109.27C111.234 109.12 111.259 108.96 111.253 108.8C111.254 108.637 111.223 108.476 111.162 108.325C111.1 108.175 111.009 108.038 110.895 107.922C110.78 107.806 110.643 107.714 110.492 107.652C110.342 107.589 110.18 107.557 110.017 107.557C109.854 107.557 109.692 107.589 109.541 107.652C109.391 107.714 109.254 107.806 109.139 107.922ZM110.017 91.491C107.572 91.491 105.181 92.2161 103.148 93.5746C101.115 94.9331 99.5302 96.8641 98.5945 99.1232C97.6587 101.382 97.4138 103.868 97.8909 106.267C98.3679 108.665 99.5455 110.868 101.275 112.597C103.004 114.326 105.207 115.504 107.605 115.981C110.003 116.458 112.489 116.213 114.748 115.277C117.007 114.341 118.938 112.757 120.297 110.723C121.655 108.69 122.381 106.3 122.381 103.855C122.381 102.231 122.061 100.623 121.439 99.1232C120.818 97.6232 119.907 96.2603 118.759 95.1122C117.611 93.9641 116.248 93.0534 114.748 92.4321C113.248 91.8108 111.641 91.491 110.017 91.491ZM110.017 113.746C108.061 113.746 106.148 113.165 104.522 112.079C102.895 110.992 101.628 109.447 100.879 107.64C100.13 105.832 99.9345 103.844 100.316 101.925C100.698 100.006 101.64 98.2439 103.023 96.8607C104.406 95.4774 106.169 94.5354 108.087 94.1537C110.006 93.7721 111.995 93.968 113.802 94.7166C115.609 95.4652 117.154 96.733 118.241 98.3595C119.328 99.9861 119.908 101.898 119.908 103.855C119.908 106.478 118.866 108.994 117.011 110.849C115.156 112.703 112.64 113.746 110.017 113.746ZM110.017 97.6728C109.365 97.6724 108.725 97.8436 108.161 98.1691C107.597 98.4947 107.128 98.9631 106.802 99.5273C106.713 99.6681 106.653 99.8254 106.626 99.9899C106.599 100.154 106.605 100.323 106.645 100.485C106.685 100.647 106.757 100.799 106.857 100.932C106.957 101.066 107.083 101.178 107.227 101.261C107.371 101.344 107.531 101.398 107.697 101.418C107.862 101.438 108.03 101.424 108.19 101.378C108.35 101.332 108.5 101.253 108.629 101.148C108.758 101.042 108.864 100.911 108.941 100.764C109.05 100.575 109.207 100.418 109.396 100.31C109.585 100.201 109.799 100.145 110.017 100.146C110.345 100.146 110.659 100.276 110.891 100.508C111.123 100.739 111.253 101.054 111.253 101.382C111.253 101.71 111.123 102.024 110.891 102.256C110.659 102.488 110.345 102.618 110.017 102.618C109.689 102.618 109.375 102.748 109.143 102.98C108.911 103.212 108.781 103.527 108.781 103.855V105.091C108.781 105.419 108.911 105.733 109.143 105.965C109.375 106.197 109.689 106.327 110.017 106.327C110.345 106.327 110.659 106.197 110.891 105.965C111.123 105.733 111.253 105.419 111.253 105.091V104.868C112.071 104.572 112.758 103.997 113.195 103.245C113.632 102.493 113.791 101.611 113.644 100.754C113.496 99.8964 113.052 99.1181 112.39 98.5549C111.727 97.9918 110.887 97.6795 110.017 97.6728Z" fill="white"/>
<path fill-rule="evenodd" clip-rule="evenodd" d="M69.7118 70.9822C71.2963 70.422 72.4315 68.9108 72.4315 67.1344C72.4315 64.8811 70.6048 63.0544 68.3515 63.0544C66.0982 63.0544 64.2715 64.8811 64.2715 67.1344C64.2715 68.911 65.407 70.4224 66.9918 70.9824V75.2944C66.9918 76.0455 67.6007 76.6544 68.3518 76.6544C69.1029 76.6544 69.7118 76.0455 69.7118 75.2944V70.9822Z" fill="white"/>
</svg>
