<svg width="136" height="136" viewBox="0 0 136 136" fill="none" xmlns="http://www.w3.org/2000/svg">
<path d="M46.6701 132.568C39.9763 130.357 33.667 127.118 27.9684 122.968L31.171 118.571C36.4137 122.389 42.2182 125.368 48.3765 127.403L46.6701 132.568Z" fill="#F1F5F9"/>
<path d="M25.0997 120.76C17.2245 114.356 10.8827 106.271 6.53953 97.0966C2.19638 87.9226 -0.037938 77.8926 0.000487271 67.7426L5.44045 67.7632C5.4051 77.1012 7.46067 86.3288 11.4564 94.7688C15.4521 103.209 21.2865 110.647 28.5317 116.539L25.0997 120.76Z" fill="#F1F5F9"/>
<rect x="9" y="9" width="118.691" height="118.691" rx="59.3455" fill="#EFF6FF"/>
<path fill-rule="evenodd" clip-rule="evenodd" d="M67.803 64.1001C65.5938 64.1001 63.803 65.891 63.803 68.1001V99.5495C63.8007 99.5771 63.7995 99.6049 63.7995 99.633V107.402C63.7995 108.298 64.8882 108.742 65.5148 108.101L72.2351 101.223H123.251C125.46 101.223 127.251 99.4321 127.251 97.223V68.1001C127.251 65.891 125.46 64.1001 123.251 64.1001H67.803Z" fill="#BFDBFE"/>
<rect width="9" height="9" rx="4.5" transform="matrix(-1 0 0 1 121.5 77)" fill="white"/>
<rect width="9" height="9" rx="4.5" transform="matrix(-1 0 0 1 107.5 77)" fill="white"/>
<rect width="9" height="9" rx="4.5" transform="matrix(-1 0 0 1 94.5 77)" fill="white"/>
<path fill-rule="evenodd" clip-rule="evenodd" d="M83.8865 29C86.0957 29 87.8865 30.7909 87.8865 33V77.7752C87.8867 77.7818 87.8867 77.7885 87.8867 77.7952L87.8867 88.99C87.8867 89.9296 86.7083 90.3505 86.113 89.6236L77.9111 79.6066H17.4991C15.2899 79.6066 13.4991 77.8158 13.4991 75.6066V33C13.4991 30.7909 15.2899 29 17.4991 29H83.8865Z" fill="#1D4ED8"/>
<path d="M50.5 48.5C50.1552 48.5 49.8246 48.637 49.5808 48.8808C49.337 49.1246 49.2 49.4552 49.2 49.8V55C49.2 55.3448 49.337 55.6754 49.5808 55.9192C49.8246 56.163 50.1552 56.3 50.5 56.3C50.8448 56.3 51.1754 56.163 51.4192 55.9192C51.663 55.6754 51.8 55.3448 51.8 55V49.8C51.8 49.4552 51.663 49.1246 51.4192 48.8808C51.1754 48.637 50.8448 48.5 50.5 48.5ZM51.696 59.706C51.6675 59.6232 51.6282 59.5445 51.579 59.472L51.423 59.277C51.2402 59.0966 51.008 58.9744 50.7559 58.9258C50.5037 58.8772 50.2427 58.9044 50.006 59.004C49.8485 59.0698 49.7034 59.1622 49.577 59.277C49.4565 59.3985 49.3612 59.5425 49.2965 59.7009C49.2318 59.8593 49.199 60.0289 49.2 60.2C49.2021 60.3699 49.2374 60.5377 49.304 60.694C49.3624 60.8553 49.4555 61.0018 49.5769 61.1231C49.6982 61.2445 49.8447 61.3376 50.006 61.396C50.1616 61.4648 50.3299 61.5003 50.5 61.5003C50.6701 61.5003 50.8384 61.4648 50.994 61.396C51.1553 61.3376 51.3018 61.2445 51.4232 61.1231C51.5445 61.0018 51.6376 60.8553 51.696 60.694C51.7626 60.5377 51.7979 60.3699 51.8 60.2C51.8064 60.1134 51.8064 60.0265 51.8 59.94C51.7776 59.8571 51.7425 59.7782 51.696 59.706ZM50.5 42C47.9288 42 45.4154 42.7624 43.2776 44.1909C41.1398 45.6194 39.4735 47.6497 38.4896 50.0251C37.5056 52.4006 37.2482 55.0144 37.7498 57.5362C38.2514 60.0579 39.4895 62.3743 41.3076 64.1924C43.1257 66.0105 45.4421 67.2486 47.9638 67.7502C50.4856 68.2518 53.0994 67.9944 55.4749 67.0104C57.8503 66.0265 59.8806 64.3602 61.3091 62.2224C62.7376 60.0846 63.5 57.5712 63.5 55C63.5 53.2928 63.1637 51.6023 62.5104 50.0251C61.8571 48.4479 60.8995 47.0148 59.6924 45.8076C58.4852 44.6004 57.0521 43.6429 55.4749 42.9896C53.8977 42.3363 52.2072 42 50.5 42ZM50.5 65.4C48.4431 65.4 46.4323 64.79 44.7221 63.6473C43.0118 62.5045 41.6788 60.8803 40.8917 58.9799C40.1045 57.0796 39.8986 54.9885 40.2998 52.9711C40.7011 50.9537 41.6916 49.1006 43.1461 47.6461C44.6006 46.1916 46.4537 45.2011 48.4711 44.7998C50.4885 44.3985 52.5796 44.6045 54.4799 45.3917C56.3803 46.1788 58.0045 47.5118 59.1473 49.2221C60.2901 50.9323 60.9 52.9431 60.9 55C60.9 57.7582 59.8043 60.4035 57.8539 62.3539C55.9035 64.3043 53.2583 65.4 50.5 65.4Z" fill="white"/>
</svg>
