<svg width="136" height="136" viewBox="0 0 136 136" fill="none" xmlns="http://www.w3.org/2000/svg">
<path d="M91.5962 4.22523C104.128 8.86205 115.017 17.0884 122.901 27.8769C130.786 38.6654 135.317 51.5377 135.929 64.8862L130.995 65.1124C130.428 52.7333 126.226 40.7959 118.914 30.791C111.602 20.786 101.504 13.1571 89.8824 8.85706L91.5962 4.22523Z" fill="#F8FAFC"/>
<path d="M136 68C136 74.2384 135.142 80.4472 133.449 86.4515L128.695 85.1115C130.265 79.5432 131.061 73.7853 131.061 68H136Z" fill="#F8FAFC"/>
<rect x="9" y="9" width="118.691" height="118.691" rx="59.3455" fill="#EFF6FF"/>
<ellipse cx="70.3216" cy="44.9287" rx="20.6429" ry="21.8571" fill="#CBD5E1"/>
<path d="M30.25 110.5C30.25 105.397 31.2865 100.344 33.3003 95.63C35.314 90.9156 38.2657 86.632 41.9867 83.0238C45.7076 79.4156 50.1251 76.5534 54.9868 74.6006C59.8485 72.6479 65.0592 71.6428 70.3214 71.6428C75.5837 71.6428 80.7944 72.6479 85.6561 74.6007C90.5178 76.5534 94.9352 79.4156 98.6562 83.0238C102.377 86.632 105.329 90.9156 107.343 95.63C109.356 100.344 110.393 105.397 110.393 110.5L30.25 110.5Z" fill="#60A5FA"/>
<path d="M30.25 110.5C30.25 109.282 30.4265 106.857 30.4265 106.857H110.216C110.334 108.066 110.393 109.282 110.393 110.5L30.25 110.5Z" fill="#2563EB"/>
<path d="M49.5103 46.7499C50.1262 47.898 50.1372 48.5313 51.2773 48.9113C51.5488 47.9885 53.7449 40.9384 53.7449 39.3749C53.7449 37.4206 58.3051 29.6034 67.2626 34.652C76.2202 39.7006 83.2234 36.1177 83.2234 37.4206C83.2234 38.4629 87.5984 43.2413 88.6842 43.8927V47.3128C89.1185 47.747 90.1825 48.4853 90.9643 47.9642C91.9415 47.3127 91.8552 31.5577 90.5523 26.0205C89.2494 20.4833 83.712 22.9262 80.4547 23.0891C77.1974 23.2519 74.9173 16.4119 69.217 12.6662C63.5168 8.92043 60.2595 12.1776 59.4451 13.6433C58.6308 15.109 52.9304 21.1348 49.5103 23.7405C46.0901 26.3463 47.2302 30.9063 48.5331 33.512C49.836 36.1178 48.5331 44.9285 49.5103 46.7499Z" fill="#1E293B"/>
<rect x="80.0361" y="89.8572" width="2.42857" height="7.28571" rx="1.21429" fill="#1E293B"/>
<rect x="83.6787" y="93.5" width="7.28571" height="3.64286" rx="1.82143" fill="#CBD5E1"/>
<path d="M92.1787 95.9286C92.1787 96.8854 91.9903 97.8328 91.6241 98.7168C91.258 99.6007 90.7213 100.404 90.0448 101.08C89.3682 101.757 88.5651 102.294 87.6811 102.66C86.7972 103.026 85.8498 103.214 84.893 103.214C83.9362 103.214 82.9888 103.026 82.1049 102.66C81.2209 102.294 80.4178 101.757 79.7412 101.08C79.0647 100.404 78.528 99.6007 78.1619 98.7168C77.7957 97.8328 77.6073 96.8854 77.6073 95.9286L92.1787 95.9286Z" fill="#BFDBFE"/>
</svg>
