<svg width="12" height="14" viewBox="0 0 12 14" fill="none" xmlns="http://www.w3.org/2000/svg">
<path d="M11.3332 4.96016C11.3262 4.89892 11.3128 4.83858 11.2932 4.78016V4.72016C11.2611 4.65162 11.2184 4.58861 11.1665 4.5335L7.1665 0.533496C7.11139 0.48164 7.04838 0.438883 6.97984 0.406829H6.91984L6.7065 0.333496H2.6665C2.13607 0.333496 1.62736 0.54421 1.25229 0.919283C0.877218 1.29436 0.666504 1.80306 0.666504 2.3335V11.6668C0.666504 12.1973 0.877218 12.706 1.25229 13.081C1.62736 13.4561 2.13607 13.6668 2.6665 13.6668H9.33317C9.8636 13.6668 10.3723 13.4561 10.7474 13.081C11.1225 12.706 11.3332 12.1973 11.3332 11.6668V5.00016C11.3332 5.00016 11.3332 5.00016 11.3332 4.96016ZM7.33317 2.60683L9.05984 4.3335H7.33317V2.60683ZM9.99984 11.6668C9.99984 11.8436 9.9296 12.0132 9.80457 12.1382C9.67955 12.2633 9.50998 12.3335 9.33317 12.3335H2.6665C2.48969 12.3335 2.32012 12.2633 2.1951 12.1382C2.07008 12.0132 1.99984 11.8436 1.99984 11.6668V2.3335C1.99984 2.15669 2.07008 1.98712 2.1951 1.86209C2.32012 1.73707 2.48969 1.66683 2.6665 1.66683H5.99984V5.00016C5.99984 5.17697 6.07008 5.34654 6.1951 5.47157C6.32012 5.59659 6.48969 5.66683 6.6665 5.66683H9.99984V11.6668Z" fill="#3B82F6"/>
</svg>
