<svg width="14" height="14" viewBox="0 0 14 14" fill="none" xmlns="http://www.w3.org/2000/svg">
<path d="M13.0002 8.3335C12.8234 8.3335 12.6538 8.40373 12.5288 8.52876C12.4037 8.65378 12.3335 8.82335 12.3335 9.00016V11.6668C12.3335 11.8436 12.2633 12.0132 12.1382 12.1382C12.0132 12.2633 11.8436 12.3335 11.6668 12.3335H2.3335C2.15669 12.3335 1.98712 12.2633 1.86209 12.1382C1.73707 12.0132 1.66683 11.8436 1.66683 11.6668V9.00016C1.66683 8.82335 1.59659 8.65378 1.47157 8.52876C1.34654 8.40373 1.17697 8.3335 1.00016 8.3335C0.823352 8.3335 0.653782 8.40373 0.528758 8.52876C0.403734 8.65378 0.333496 8.82335 0.333496 9.00016V11.6668C0.333496 12.1973 0.54421 12.706 0.919283 13.081C1.29436 13.4561 1.80306 13.6668 2.3335 13.6668H11.6668C12.1973 13.6668 12.706 13.4561 13.081 13.081C13.4561 12.706 13.6668 12.1973 13.6668 11.6668V9.00016C13.6668 8.82335 13.5966 8.65378 13.4716 8.52876C13.3465 8.40373 13.177 8.3335 13.0002 8.3335ZM6.52683 9.4735C6.59023 9.53419 6.665 9.58177 6.74683 9.6135C6.82663 9.64877 6.91292 9.66698 7.00016 9.66698C7.08741 9.66698 7.1737 9.64877 7.2535 9.6135C7.33533 9.58177 7.41009 9.53419 7.4735 9.4735L10.1402 6.80683C10.2657 6.68129 10.3362 6.51103 10.3362 6.3335C10.3362 6.15596 10.2657 5.9857 10.1402 5.86016C10.0146 5.73463 9.84436 5.6641 9.66683 5.6641C9.4893 5.6641 9.31903 5.73463 9.1935 5.86016L7.66683 7.3935V1.00016C7.66683 0.823352 7.59659 0.653782 7.47157 0.528758C7.34654 0.403734 7.17697 0.333496 7.00016 0.333496C6.82335 0.333496 6.65378 0.403734 6.52876 0.528758C6.40373 0.653782 6.3335 0.823352 6.3335 1.00016V7.3935L4.80683 5.86016C4.74467 5.798 4.67088 5.7487 4.58966 5.71506C4.50845 5.68142 4.4214 5.6641 4.3335 5.6641C4.24559 5.6641 4.15854 5.68142 4.07733 5.71506C3.99612 5.7487 3.92232 5.798 3.86016 5.86016C3.798 5.92232 3.7487 5.99612 3.71506 6.07733C3.68142 6.15854 3.6641 6.24559 3.6641 6.3335C3.6641 6.4214 3.68142 6.50845 3.71506 6.58966C3.7487 6.67088 3.798 6.74467 3.86016 6.80683L6.52683 9.4735Z" fill="#3B82F6"/>
</svg>
