<svg width="14" height="14" viewBox="0 0 14 14" fill="none" xmlns="http://www.w3.org/2000/svg">
<path d="M7.00001 3.66666C6.8232 3.66666 6.65363 3.7369 6.52861 3.86192C6.40358 3.98695 6.33335 4.15652 6.33335 4.33333V7C6.33335 7.17681 6.40358 7.34638 6.52861 7.4714C6.65363 7.59642 6.8232 7.66666 7.00001 7.66666C7.17682 7.66666 7.34639 7.59642 7.47142 7.4714C7.59644 7.34638 7.66668 7.17681 7.66668 7V4.33333C7.66668 4.15652 7.59644 3.98695 7.47142 3.86192C7.34639 3.7369 7.17682 3.66666 7.00001 3.66666ZM7.61335 9.41333C7.59875 9.37085 7.57858 9.33049 7.55335 9.29333L7.47335 9.19333C7.3796 9.10082 7.26055 9.03816 7.13122 9.01324C7.0019 8.98833 6.86809 9.00228 6.74668 9.05333C6.66589 9.08709 6.59148 9.13444 6.52668 9.19333C6.46489 9.25562 6.41601 9.3295 6.38283 9.41072C6.34966 9.49195 6.33284 9.57892 6.33335 9.66666C6.3344 9.75378 6.35252 9.83985 6.38668 9.91999C6.41662 10.0027 6.46439 10.0779 6.5266 10.1401C6.58882 10.2023 6.66395 10.2501 6.74668 10.28C6.82648 10.3153 6.91277 10.3335 7.00001 10.3335C7.08726 10.3335 7.17355 10.3153 7.25335 10.28C7.33608 10.2501 7.41121 10.2023 7.47342 10.1401C7.53563 10.0779 7.58341 10.0027 7.61335 9.91999C7.64751 9.83985 7.66563 9.75378 7.66668 9.66666C7.66995 9.62228 7.66995 9.57771 7.66668 9.53333C7.6552 9.49082 7.63721 9.45034 7.61335 9.41333ZM7.00001 0.333328C5.68147 0.333328 4.39254 0.724321 3.29621 1.45686C2.19988 2.18941 1.3454 3.2306 0.840816 4.44877C0.336232 5.66695 0.20421 7.00739 0.461445 8.3006C0.718679 9.5938 1.35362 10.7817 2.28597 11.714C3.21832 12.6464 4.4062 13.2813 5.69941 13.5386C6.99262 13.7958 8.33306 13.6638 9.55124 13.1592C10.7694 12.6546 11.8106 11.8001 12.5431 10.7038C13.2757 9.60747 13.6667 8.31854 13.6667 7C13.6667 6.12452 13.4942 5.25761 13.1592 4.44877C12.8242 3.63993 12.3331 2.90501 11.7141 2.28595C11.095 1.66689 10.3601 1.17583 9.55124 0.840798C8.7424 0.505767 7.87549 0.333328 7.00001 0.333328ZM7.00001 12.3333C5.94518 12.3333 4.91403 12.0205 4.03697 11.4345C3.15991 10.8485 2.47632 10.0155 2.07266 9.04097C1.66899 8.06643 1.56337 6.99408 1.76916 5.95951C1.97495 4.92495 2.4829 3.97464 3.22878 3.22876C3.97466 2.48288 4.92497 1.97493 5.95953 1.76914C6.9941 1.56335 8.06645 1.66897 9.04099 2.07264C10.0155 2.47631 10.8485 3.15989 11.4345 4.03695C12.0206 4.91402 12.3333 5.94516 12.3333 7C12.3333 8.41448 11.7714 9.77104 10.7712 10.7712C9.77106 11.7714 8.4145 12.3333 7.00001 12.3333Z" fill="#F97316"/>
</svg>
