<svg width="14" height="14" viewBox="0 0 14 14" fill="none" xmlns="http://www.w3.org/2000/svg">
<path d="M6.99998 3.66668C6.82317 3.66668 6.6536 3.73691 6.52858 3.86194C6.40355 3.98696 6.33332 4.15653 6.33332 4.33334V7.00001C6.33332 7.17682 6.40355 7.34639 6.52858 7.47141C6.6536 7.59644 6.82317 7.66668 6.99998 7.66668C7.17679 7.66668 7.34636 7.59644 7.47139 7.47141C7.59641 7.34639 7.66665 7.17682 7.66665 7.00001V4.33334C7.66665 4.15653 7.59641 3.98696 7.47139 3.86194C7.34636 3.73691 7.17679 3.66668 6.99998 3.66668ZM7.61332 9.41334C7.59872 9.37086 7.57855 9.33051 7.55332 9.29334L7.47332 9.19334C7.37957 9.10084 7.26052 9.03817 7.13119 9.01326C7.00187 8.98834 6.86806 9.00229 6.74665 9.05334C6.66586 9.0871 6.59145 9.13446 6.52665 9.19334C6.46486 9.25564 6.41598 9.32951 6.3828 9.41074C6.34963 9.49196 6.33281 9.57894 6.33332 9.66668C6.33437 9.7538 6.35249 9.83986 6.38665 9.92001C6.41659 10.0027 6.46436 10.0779 6.52657 10.1401C6.58879 10.2023 6.66392 10.2501 6.74665 10.28C6.82645 10.3153 6.91274 10.3335 6.99998 10.3335C7.08723 10.3335 7.17352 10.3153 7.25332 10.28C7.33605 10.2501 7.41118 10.2023 7.47339 10.1401C7.5356 10.0779 7.58337 10.0027 7.61332 9.92001C7.64748 9.83986 7.6656 9.7538 7.66665 9.66668C7.66992 9.62229 7.66992 9.57773 7.66665 9.53334C7.65517 9.49083 7.63718 9.45035 7.61332 9.41334ZM6.99998 0.333344C5.68144 0.333344 4.39251 0.724337 3.29618 1.45688C2.19985 2.18942 1.34537 3.23061 0.840786 4.44879C0.336202 5.66696 0.204179 7.00741 0.461414 8.30061C0.718649 9.59382 1.35359 10.7817 2.28594 11.7141C3.21829 12.6464 4.40617 13.2813 5.69938 13.5386C6.99259 13.7958 8.33303 13.6638 9.55121 13.1592C10.7694 12.6546 11.8106 11.8001 12.5431 10.7038C13.2757 9.60748 13.6666 8.31855 13.6666 7.00001C13.6666 6.12453 13.4942 5.25762 13.1592 4.44879C12.8241 3.63995 12.3331 2.90502 11.714 2.28596C11.095 1.66691 10.36 1.17584 9.55121 0.840813C8.74237 0.505782 7.87546 0.333344 6.99998 0.333344ZM6.99998 12.3333C5.94515 12.3333 4.914 12.0205 4.03694 11.4345C3.15988 10.8485 2.47629 10.0155 2.07263 9.04099C1.66896 8.06645 1.56334 6.99409 1.76913 5.95953C1.97492 4.92496 2.48287 3.97465 3.22875 3.22877C3.97463 2.48289 4.92494 1.97494 5.9595 1.76916C6.99407 1.56337 8.06642 1.66899 9.04096 2.07265C10.0155 2.47632 10.8485 3.15991 11.4345 4.03697C12.0205 4.91403 12.3333 5.94518 12.3333 7.00001C12.3333 8.4145 11.7714 9.77105 10.7712 10.7712C9.77102 11.7714 8.41447 12.3333 6.99998 12.3333Z" fill="#EA001E"/>
</svg>
