<svg width="14" height="14" viewBox="0 0 14 14" fill="none" xmlns="http://www.w3.org/2000/svg">
<path d="M7.3935 7.6669L5.86016 9.19356C5.79768 9.25554 5.74808 9.32927 5.71424 9.41051C5.68039 9.49175 5.66296 9.57889 5.66296 9.6669C5.66296 9.7549 5.68039 9.84204 5.71424 9.92328C5.74808 10.0045 5.79768 10.0783 5.86016 10.1402C5.92214 10.2027 5.99587 10.2523 6.07711 10.2862C6.15835 10.32 6.24549 10.3374 6.3335 10.3374C6.4215 10.3374 6.50864 10.32 6.58988 10.2862C6.67112 10.2523 6.74485 10.2027 6.80683 10.1402L9.4735 7.47356C9.53419 7.41016 9.58177 7.3354 9.6135 7.25356C9.68017 7.09126 9.68017 6.9092 9.6135 6.7469C9.58177 6.66506 9.53419 6.5903 9.4735 6.5269L6.80683 3.86023C6.74467 3.79807 6.67088 3.74876 6.58966 3.71512C6.50845 3.68148 6.4214 3.66417 6.3335 3.66417C6.24559 3.66417 6.15854 3.68148 6.07733 3.71512C5.99612 3.74876 5.92232 3.79807 5.86016 3.86023C5.798 3.92239 5.7487 3.99618 5.71506 4.0774C5.68142 4.15861 5.6641 4.24566 5.6641 4.33356C5.6641 4.42147 5.68142 4.50851 5.71506 4.58973C5.7487 4.67094 5.798 4.74474 5.86016 4.8069L7.3935 6.33356H1.00016C0.823352 6.33356 0.653782 6.4038 0.528758 6.52883C0.403734 6.65385 0.333496 6.82342 0.333496 7.00023C0.333496 7.17704 0.403734 7.34661 0.528758 7.47163C0.653782 7.59666 0.823352 7.6669 1.00016 7.6669H7.3935ZM7.00016 0.333563C5.75422 0.328 4.53166 0.671704 3.47114 1.32569C2.41062 1.97968 1.5546 2.91777 1.00016 4.03356C0.920598 4.19269 0.907506 4.37691 0.963767 4.54569C1.02003 4.71448 1.14103 4.854 1.30016 4.93356C1.45929 5.01313 1.64351 5.02622 1.81229 4.96996C1.98108 4.9137 2.1206 4.79269 2.20016 4.63356C2.62162 3.78244 3.26272 3.05931 4.0572 2.53889C4.85167 2.01847 5.77071 1.71964 6.71933 1.67329C7.66796 1.62694 8.61175 1.83475 9.45318 2.27524C10.2946 2.71573 11.0031 3.37292 11.5056 4.17889C12.008 4.98487 12.2861 5.91039 12.3111 6.85982C12.3361 7.80924 12.1071 8.74812 11.6478 9.57944C11.1885 10.4107 10.5156 11.1043 9.69852 11.5885C8.88145 12.0727 7.94991 12.3299 7.00016 12.3336C6.00608 12.3379 5.03093 12.0618 4.18662 11.5371C3.34232 11.0123 2.66307 10.2602 2.22683 9.3669C2.14726 9.20777 2.00774 9.08676 1.83896 9.0305C1.67018 8.97424 1.48596 8.98733 1.32683 9.0669C1.1677 9.14646 1.04669 9.28598 0.990433 9.45476C0.934172 9.62355 0.947264 9.80777 1.02683 9.9669C1.55538 11.0306 2.35851 11.9337 3.35314 12.5829C4.34778 13.2321 5.49779 13.6038 6.68424 13.6596C7.87069 13.7153 9.05049 13.453 10.1016 12.8999C11.1527 12.3468 12.0369 11.5229 12.6629 10.5134C13.2888 9.504 13.6337 8.34565 13.6618 7.15823C13.69 5.97081 13.4004 4.79742 12.823 3.75945C12.2456 2.72148 11.4014 1.85661 10.3777 1.2543C9.35396 0.651992 8.18792 0.33412 7.00016 0.333563Z" fill="#3B82F6"/>
</svg>
